<svg width="18" height="18" viewBox="0 0 18 18" fill="none" xmlns="http://www.w3.org/2000/svg">
<path d="M1.96191 7.43512C1.96191 6.32937 2.19673 5.30869 2.66635 4.37306C3.1361 3.43756 3.77004 2.64769 4.56816 2.00344L5.26173 2.87887C4.59348 3.41925 4.06391 4.08175 3.67304 4.86637C3.28229 5.651 3.08691 6.50725 3.08691 7.43512H1.96191ZM14.9137 7.43512C14.9137 6.50725 14.7183 5.64981 14.3275 4.86281C13.9367 4.07581 13.4071 3.41206 12.7389 2.87156L13.4324 2.00344C14.2305 2.64769 14.8645 3.43756 15.3342 4.37306C15.8039 5.30869 16.0387 6.32937 16.0387 7.43512H14.9137ZM3.37529 14.1634V13.0386H4.7311V7.44225C4.7311 6.43362 5.04241 5.54181 5.66504 4.76681C6.28754 3.99181 7.08679 3.49612 8.06279 3.27975V2.8125C8.06279 2.55288 8.15416 2.33175 8.33691 2.14912C8.51954 1.96637 8.74066 1.875 9.00029 1.875C9.25991 1.875 9.48104 1.96637 9.66366 2.14912C9.84641 2.33175 9.93779 2.55288 9.93779 2.8125V3.27975C10.9138 3.49612 11.713 3.99181 12.3355 4.76681C12.9582 5.54181 13.2695 6.43362 13.2695 7.44225V13.0386H14.6253V14.1634H3.37529ZM9.00029 16.2692C8.62629 16.2692 8.30685 16.1368 8.04198 15.8719C7.77698 15.607 7.64448 15.2875 7.64448 14.9134H10.3561C10.3561 15.2875 10.2236 15.607 9.9586 15.8719C9.69373 16.1368 9.37429 16.2692 9.00029 16.2692ZM5.8561 13.0386H12.1445V7.44225C12.1445 6.574 11.8375 5.83294 11.2237 5.21906C10.6097 4.60506 9.86854 4.29806 9.00029 4.29806C8.13204 4.29806 7.39091 4.60506 6.77691 5.21906C6.16304 5.83294 5.8561 6.574 5.8561 7.44225V13.0386Z" fill="#432818" fill-opacity="0.8"/>
</svg>
