<svg width="18" height="18" viewBox="0 0 18 18" fill="none" xmlns="http://www.w3.org/2000/svg">
<path d="M7.425 11.3369L9 9.76186L10.575 11.3369L11.3653 10.5465L9.79031 8.97155L11.3653 7.39655L10.575 6.60624L9 8.18123L7.425 6.60624L6.63469 7.39655L8.20969 8.97155L6.63469 10.5465L7.425 11.3369ZM9 16.111C7.37788 15.6686 6.03488 14.7138 4.971 13.2465C3.907 11.7793 3.375 10.1389 3.375 8.32542V4.01011L9 1.9043L14.625 4.01011V8.32542C14.625 10.1389 14.093 11.7793 13.029 13.2465C11.9651 14.7138 10.6221 15.6686 9 16.111ZM9 14.9254C10.3 14.5129 11.375 13.6879 12.225 12.4504C13.075 11.2129 13.5 9.83792 13.5 8.32542V4.78167L9 3.1013L4.5 4.78167V8.32542C4.5 9.83792 4.925 11.2129 5.775 12.4504C6.625 13.6879 7.7 14.5129 9 14.9254Z" fill="#FF0000" fill-opacity="0.8"/>
</svg>
