<svg width="18" height="18" viewBox="0 0 18 18" fill="none" xmlns="http://www.w3.org/2000/svg">
<path d="M8.7375 4.48125C8.6625 4.40625 8.625 4.31875 8.625 4.21875C8.625 4.11875 8.6625 4.03125 8.7375 3.95625C8.8125 3.88125 8.9 3.84375 9 3.84375C9.1 3.84375 9.1875 3.88125 9.2625 3.95625C9.3375 4.03125 9.375 4.11875 9.375 4.21875C9.375 4.31875 9.3375 4.40625 9.2625 4.48125C9.1875 4.55625 9.1 4.59375 9 4.59375C8.9 4.59375 8.8125 4.55625 8.7375 4.48125ZM10.2375 4.48125C10.1625 4.40625 10.125 4.31875 10.125 4.21875C10.125 4.11875 10.1625 4.03125 10.2375 3.95625C10.3125 3.88125 10.4 3.84375 10.5 3.84375C10.6 3.84375 10.6875 3.88125 10.7625 3.95625C10.8375 4.03125 10.875 4.11875 10.875 4.21875C10.875 4.31875 10.8375 4.40625 10.7625 4.48125C10.6875 4.55625 10.6 4.59375 10.5 4.59375C10.4 4.59375 10.3125 4.55625 10.2375 4.48125ZM7.2375 4.48125C7.1625 4.40625 7.125 4.31875 7.125 4.21875C7.125 4.11875 7.1625 4.03125 7.2375 3.95625C7.3125 3.88125 7.4 3.84375 7.5 3.84375C7.6 3.84375 7.6875 3.88125 7.7625 3.95625C7.8375 4.03125 7.875 4.11875 7.875 4.21875C7.875 4.31875 7.8375 4.40625 7.7625 4.48125C7.6875 4.55625 7.6 4.59375 7.5 4.59375C7.4 4.59375 7.3125 4.55625 7.2375 4.48125ZM12.4875 5.23125C12.4125 5.15625 12.375 5.06875 12.375 4.96875C12.375 4.86875 12.4125 4.78125 12.4875 4.70625C12.5625 4.63125 12.65 4.59375 12.75 4.59375C12.85 4.59375 12.9375 4.63125 13.0125 4.70625C13.0875 4.78125 13.125 4.86875 13.125 4.96875C13.125 5.06875 13.0875 5.15625 13.0125 5.23125C12.9375 5.30625 12.85 5.34375 12.75 5.34375C12.65 5.34375 12.5625 5.30625 12.4875 5.23125ZM6.4875 5.23125C6.4125 5.15625 6.375 5.06875 6.375 4.96875C6.375 4.86875 6.4125 4.78125 6.4875 4.70625C6.5625 4.63125 6.65 4.59375 6.75 4.59375C6.85 4.59375 6.9375 4.63125 7.0125 4.70625C7.0875 4.78125 7.125 4.86875 7.125 4.96875C7.125 5.06875 7.0875 5.15625 7.0125 5.23125C6.9375 5.30625 6.85 5.34375 6.75 5.34375C6.65 5.34375 6.5625 5.30625 6.4875 5.23125ZM4.9875 5.23125C4.9125 5.15625 4.875 5.06875 4.875 4.96875C4.875 4.86875 4.9125 4.78125 4.9875 4.70625C5.0625 4.63125 5.15 4.59375 5.25 4.59375C5.35 4.59375 5.4375 4.63125 5.5125 4.70625C5.5875 4.78125 5.625 4.86875 5.625 4.96875C5.625 5.06875 5.5875 5.15625 5.5125 5.23125C5.4375 5.30625 5.35 5.34375 5.25 5.34375C5.15 5.34375 5.0625 5.30625 4.9875 5.23125ZM7.9875 5.23125C7.9125 5.15625 7.875 5.06875 7.875 4.96875C7.875 4.86875 7.9125 4.78125 7.9875 4.70625C8.0625 4.63125 8.15 4.59375 8.25 4.59375C8.35 4.59375 8.4375 4.63125 8.5125 4.70625C8.5875 4.78125 8.625 4.86875 8.625 4.96875C8.625 5.06875 8.5875 5.15625 8.5125 5.23125C8.4375 5.30625 8.35 5.34375 8.25 5.34375C8.15 5.34375 8.0625 5.30625 7.9875 5.23125ZM9.4875 5.23125C9.4125 5.15625 9.375 5.06875 9.375 4.96875C9.375 4.86875 9.4125 4.78125 9.4875 4.70625C9.5625 4.63125 9.65 4.59375 9.75 4.59375C9.85 4.59375 9.9375 4.63125 10.0125 4.70625C10.0875 4.78125 10.125 4.86875 10.125 4.96875C10.125 5.06875 10.0875 5.15625 10.0125 5.23125C9.9375 5.30625 9.85 5.34375 9.75 5.34375C9.65 5.34375 9.5625 5.30625 9.4875 5.23125ZM10.9875 5.23125C10.9125 5.15625 10.875 5.06875 10.875 4.96875C10.875 4.86875 10.9125 4.78125 10.9875 4.70625C11.0625 4.63125 11.15 4.59375 11.25 4.59375C11.35 4.59375 11.4375 4.63125 11.5125 4.70625C11.5875 4.78125 11.625 4.86875 11.625 4.96875C11.625 5.06875 11.5875 5.15625 11.5125 5.23125C11.4375 5.30625 11.35 5.34375 11.25 5.34375C11.15 5.34375 11.0625 5.30625 10.9875 5.23125ZM8.7375 5.98125C8.6625 5.90625 8.625 5.81875 8.625 5.71875C8.625 5.61875 8.6625 5.53125 8.7375 5.45625C8.8125 5.38125 8.9 5.34375 9 5.34375C9.1 5.34375 9.1875 5.38125 9.2625 5.45625C9.3375 5.53125 9.375 5.61875 9.375 5.71875C9.375 5.81875 9.3375 5.90625 9.2625 5.98125C9.1875 6.05625 9.1 6.09375 9 6.09375C8.9 6.09375 8.8125 6.05625 8.7375 5.98125ZM10.2375 5.98125C10.1625 5.90625 10.125 5.81875 10.125 5.71875C10.125 5.61875 10.1625 5.53125 10.2375 5.45625C10.3125 5.38125 10.4 5.34375 10.5 5.34375C10.6 5.34375 10.6875 5.38125 10.7625 5.45625C10.8375 5.53125 10.875 5.61875 10.875 5.71875C10.875 5.81875 10.8375 5.90625 10.7625 5.98125C10.6875 6.05625 10.6 6.09375 10.5 6.09375C10.4 6.09375 10.3125 6.05625 10.2375 5.98125ZM11.7375 5.98125C11.6625 5.90625 11.625 5.81875 11.625 5.71875C11.625 5.61875 11.6625 5.53125 11.7375 5.45625C11.8125 5.38125 11.9 5.34375 12 5.34375C12.1 5.34375 12.1875 5.38125 12.2625 5.45625C12.3375 5.53125 12.375 5.61875 12.375 5.71875C12.375 5.81875 12.3375 5.90625 12.2625 5.98125C12.1875 6.05625 12.1 6.09375 12 6.09375C11.9 6.09375 11.8125 6.05625 11.7375 5.98125ZM7.2375 5.98125C7.1625 5.90625 7.125 5.81875 7.125 5.71875C7.125 5.61875 7.1625 5.53125 7.2375 5.45625C7.3125 5.38125 7.4 5.34375 7.5 5.34375C7.6 5.34375 7.6875 5.38125 7.7625 5.45625C7.8375 5.53125 7.875 5.61875 7.875 5.71875C7.875 5.81875 7.8375 5.90625 7.7625 5.98125C7.6875 6.05625 7.6 6.09375 7.5 6.09375C7.4 6.09375 7.3125 6.05625 7.2375 5.98125ZM5.7375 5.98125C5.6625 5.90625 5.625 5.81875 5.625 5.71875C5.625 5.61875 5.6625 5.53125 5.7375 5.45625C5.8125 5.38125 5.9 5.34375 6 5.34375C6.1 5.34375 6.1875 5.38125 6.2625 5.45625C6.3375 5.53125 6.375 5.61875 6.375 5.71875C6.375 5.81875 6.3375 5.90625 6.2625 5.98125C6.1875 6.05625 6.1 6.09375 6 6.09375C5.9 6.09375 5.8125 6.05625 5.7375 5.98125ZM6.4875 6.73125C6.4125 6.65625 6.375 6.56875 6.375 6.46875C6.375 6.36875 6.4125 6.28125 6.4875 6.20625C6.5625 6.13125 6.65 6.09375 6.75 6.09375C6.85 6.09375 6.9375 6.13125 7.0125 6.20625C7.0875 6.28125 7.125 6.36875 7.125 6.46875C7.125 6.56875 7.0875 6.65625 7.0125 6.73125C6.9375 6.80625 6.85 6.84375 6.75 6.84375C6.65 6.84375 6.5625 6.80625 6.4875 6.73125ZM4.9875 6.73125C4.9125 6.65625 4.875 6.56875 4.875 6.46875C4.875 6.36875 4.9125 6.28125 4.9875 6.20625C5.0625 6.13125 5.15 6.09375 5.25 6.09375C5.35 6.09375 5.4375 6.13125 5.5125 6.20625C5.5875 6.28125 5.625 6.36875 5.625 6.46875C5.625 6.56875 5.5875 6.65625 5.5125 6.73125C5.4375 6.80625 5.35 6.84375 5.25 6.84375C5.15 6.84375 5.0625 6.80625 4.9875 6.73125ZM7.9875 6.73125C7.9125 6.65625 7.875 6.56875 7.875 6.46875C7.875 6.36875 7.9125 6.28125 7.9875 6.20625C8.0625 6.13125 8.15 6.09375 8.25 6.09375C8.35 6.09375 8.4375 6.13125 8.5125 6.20625C8.5875 6.28125 8.625 6.36875 8.625 6.46875C8.625 6.56875 8.5875 6.65625 8.5125 6.73125C8.4375 6.80625 8.35 6.84375 8.25 6.84375C8.15 6.84375 8.0625 6.80625 7.9875 6.73125ZM9.4875 6.73125C9.4125 6.65625 9.375 6.56875 9.375 6.46875C9.375 6.36875 9.4125 6.28125 9.4875 6.20625C9.5625 6.13125 9.65 6.09375 9.75 6.09375C9.85 6.09375 9.9375 6.13125 10.0125 6.20625C10.0875 6.28125 10.125 6.36875 10.125 6.46875C10.125 6.56875 10.0875 6.65625 10.0125 6.73125C9.9375 6.80625 9.85 6.84375 9.75 6.84375C9.65 6.84375 9.5625 6.80625 9.4875 6.73125ZM10.9875 6.73125C10.9125 6.65625 10.875 6.56875 10.875 6.46875C10.875 6.36875 10.9125 6.28125 10.9875 6.20625C11.0625 6.13125 11.15 6.09375 11.25 6.09375C11.35 6.09375 11.4375 6.13125 11.5125 6.20625C11.5875 6.28125 11.625 6.36875 11.625 6.46875C11.625 6.56875 11.5875 6.65625 11.5125 6.73125C11.4375 6.80625 11.35 6.84375 11.25 6.84375C11.15 6.84375 11.0625 6.80625 10.9875 6.73125ZM12.4875 6.73125C12.4125 6.65625 12.375 6.56875 12.375 6.46875C12.375 6.36875 12.4125 6.28125 12.4875 6.20625C12.5625 6.13125 12.65 6.09375 12.75 6.09375C12.85 6.09375 12.9375 6.13125 13.0125 6.20625C13.0875 6.28125 13.125 6.36875 13.125 6.46875C13.125 6.56875 13.0875 6.65625 13.0125 6.73125C12.9375 6.80625 12.85 6.84375 12.75 6.84375C12.65 6.84375 12.5625 6.80625 12.4875 6.73125ZM3.4875 6.73125C3.4125 6.65625 3.375 6.56875 3.375 6.46875C3.375 6.36875 3.4125 6.28125 3.4875 6.20625C3.5625 6.13125 3.65 6.09375 3.75 6.09375C3.85 6.09375 3.9375 6.13125 4.0125 6.20625C4.0875 6.28125 4.125 6.36875 4.125 6.46875C4.125 6.56875 4.0875 6.65625 4.0125 6.73125C3.9375 6.80625 3.85 6.84375 3.75 6.84375C3.65 6.84375 3.5625 6.80625 3.4875 6.73125ZM4.2375 5.98125C4.1625 5.90625 4.125 5.81875 4.125 5.71875C4.125 5.61875 4.1625 5.53125 4.2375 5.45625C4.3125 5.38125 4.4 5.34375 4.5 5.34375C4.6 5.34375 4.6875 5.38125 4.7625 5.45625C4.8375 5.53125 4.875 5.61875 4.875 5.71875C4.875 5.81875 4.8375 5.90625 4.7625 5.98125C4.6875 6.05625 4.6 6.09375 4.5 6.09375C4.4 6.09375 4.3125 6.05625 4.2375 5.98125ZM5.7375 4.48125C5.6625 4.40625 5.625 4.31875 5.625 4.21875C5.625 4.11875 5.6625 4.03125 5.7375 3.95625C5.8125 3.88125 5.9 3.84375 6 3.84375C6.1 3.84375 6.1875 3.88125 6.2625 3.95625C6.3375 4.03125 6.375 4.11875 6.375 4.21875C6.375 4.31875 6.3375 4.40625 6.2625 4.48125C6.1875 4.55625 6.1 4.59375 6 4.59375C5.9 4.59375 5.8125 4.55625 5.7375 4.48125ZM6.4875 3.73125C6.4125 3.65625 6.375 3.56875 6.375 3.46875C6.375 3.36875 6.4125 3.28125 6.4875 3.20625C6.5625 3.13125 6.65 3.09375 6.75 3.09375C6.85 3.09375 6.9375 3.13125 7.0125 3.20625C7.0875 3.28125 7.125 3.36875 7.125 3.46875C7.125 3.56875 7.0875 3.65625 7.0125 3.73125C6.9375 3.80625 6.85 3.84375 6.75 3.84375C6.65 3.84375 6.5625 3.80625 6.4875 3.73125ZM7.9875 3.73125C7.9125 3.65625 7.875 3.56875 7.875 3.46875C7.875 3.36875 7.9125 3.28125 7.9875 3.20625C8.0625 3.13125 8.15 3.09375 8.25 3.09375C8.35 3.09375 8.4375 3.13125 8.5125 3.20625C8.5875 3.28125 8.625 3.36875 8.625 3.46875C8.625 3.56875 8.5875 3.65625 8.5125 3.73125C8.4375 3.80625 8.35 3.84375 8.25 3.84375C8.15 3.84375 8.0625 3.80625 7.9875 3.73125ZM9.4875 3.73125C9.4125 3.65625 9.375 3.56875 9.375 3.46875C9.375 3.36875 9.4125 3.28125 9.4875 3.20625C9.5625 3.13125 9.65 3.09375 9.75 3.09375C9.85 3.09375 9.9375 3.13125 10.0125 3.20625C10.0875 3.28125 10.125 3.36875 10.125 3.46875C10.125 3.56875 10.0875 3.65625 10.0125 3.73125C9.9375 3.80625 9.85 3.84375 9.75 3.84375C9.65 3.84375 9.5625 3.80625 9.4875 3.73125ZM10.9875 3.73125C10.9125 3.65625 10.875 3.56875 10.875 3.46875C10.875 3.36875 10.9125 3.28125 10.9875 3.20625C11.0625 3.13125 11.15 3.09375 11.25 3.09375C11.35 3.09375 11.4375 3.13125 11.5125 3.20625C11.5875 3.28125 11.625 3.36875 11.625 3.46875C11.625 3.56875 11.5875 3.65625 11.5125 3.73125C11.4375 3.80625 11.35 3.84375 11.25 3.84375C11.15 3.84375 11.0625 3.80625 10.9875 3.73125ZM11.7375 4.48125C11.6625 4.40625 11.625 4.31875 11.625 4.21875C11.625 4.11875 11.6625 4.03125 11.7375 3.95625C11.8125 3.88125 11.9 3.84375 12 3.84375C12.1 3.84375 12.1875 3.88125 12.2625 3.95625C12.3375 4.03125 12.375 4.11875 12.375 4.21875C12.375 4.31875 12.3375 4.40625 12.2625 4.48125C12.1875 4.55625 12.1 4.59375 12 4.59375C11.9 4.59375 11.8125 4.55625 11.7375 4.48125ZM13.2375 5.98125C13.1625 5.90625 13.125 5.81875 13.125 5.71875C13.125 5.61875 13.1625 5.53125 13.2375 5.45625C13.3125 5.38125 13.4 5.34375 13.5 5.34375C13.6 5.34375 13.6875 5.38125 13.7625 5.45625C13.8375 5.53125 13.875 5.61875 13.875 5.71875C13.875 5.81875 13.8375 5.90625 13.7625 5.98125C13.6875 6.05625 13.6 6.09375 13.5 6.09375C13.4 6.09375 13.3125 6.05625 13.2375 5.98125ZM13.9875 6.73125C13.9125 6.65625 13.875 6.56875 13.875 6.46875C13.875 6.36875 13.9125 6.28125 13.9875 6.20625C14.0625 6.13125 14.15 6.09375 14.25 6.09375C14.35 6.09375 14.4375 6.13125 14.5125 6.20625C14.5875 6.28125 14.625 6.36875 14.625 6.46875C14.625 6.56875 14.5875 6.65625 14.5125 6.73125C14.4375 6.80625 14.35 6.84375 14.25 6.84375C14.15 6.84375 14.0625 6.80625 13.9875 6.73125ZM6.08438 10.4156C5.90313 10.2344 5.8125 10.0125 5.8125 9.75C5.8125 9.4875 5.90313 9.26563 6.08438 9.08438C6.26562 8.90313 6.4875 8.8125 6.75 8.8125C7.0125 8.8125 7.23438 8.90313 7.41563 9.08438C7.59688 9.26563 7.6875 9.4875 7.6875 9.75C7.6875 10.0125 7.59688 10.2344 7.41563 10.4156C7.23438 10.5969 7.0125 10.6875 6.75 10.6875C6.4875 10.6875 6.26562 10.5969 6.08438 10.4156ZM10.5844 10.4156C10.4031 10.2344 10.3125 10.0125 10.3125 9.75C10.3125 9.4875 10.4031 9.26563 10.5844 9.08438C10.7656 8.90313 10.9875 8.8125 11.25 8.8125C11.5125 8.8125 11.7344 8.90313 11.9156 9.08438C12.0969 9.26563 12.1875 9.4875 12.1875 9.75C12.1875 10.0125 12.0969 10.2344 11.9156 10.4156C11.7344 10.5969 11.5125 10.6875 11.25 10.6875C10.9875 10.6875 10.7656 10.5969 10.5844 10.4156ZM9 16.125C8.02313 16.125 7.10156 15.9381 6.23531 15.5644C5.36919 15.1906 4.61281 14.6804 3.96619 14.0338C3.31956 13.3872 2.80937 12.6308 2.43562 11.7647C2.06187 10.8984 1.875 9.97794 1.875 9.00319C1.875 8.01644 2.06225 7.08969 2.43675 6.22294C2.81125 5.35606 3.32112 4.60075 3.96637 3.957C4.6115 3.31325 5.36775 2.80531 6.23513 2.43319C7.1025 2.06106 8.02338 1.875 8.99775 1.875C9.98388 1.875 10.9103 2.06106 11.7771 2.43319C12.6439 2.80531 13.3993 3.31325 14.043 3.957C14.6868 4.60075 15.1947 5.35587 15.5668 6.22237C15.9389 7.08887 16.125 8.01475 16.125 9C16.125 9.97488 15.9389 10.8963 15.5668 11.7641C15.1947 12.632 14.6868 13.3885 14.043 14.0336C13.3993 14.6789 12.6441 15.1888 11.7776 15.5633C10.9111 15.9377 9.98525 16.125 9 16.125ZM9 15C10.675 15 12.0938 14.4156 13.2563 13.2469C14.4188 12.0781 15 10.6625 15 9C15 7.325 14.4188 5.90625 13.2563 4.74375C12.0938 3.58125 10.675 3 9 3C7.3375 3 5.92188 3.58125 4.75313 4.74375C3.58438 5.90625 3 7.325 3 9C3 10.6625 3.58438 12.0781 4.75313 13.2469C5.92188 14.4156 7.3375 15 9 15Z" fill="#432818" fill-opacity="0.8"/>
</svg>
