<svg width="18" height="18" viewBox="0 0 18 18" fill="none" xmlns="http://www.w3.org/2000/svg">
<path d="M8.25 15.375H3.98081C3.60194 15.375 3.28125 15.2438 3.01875 14.9813C2.75625 14.7188 2.625 14.3981 2.625 14.0192V3.98081C2.625 3.60194 2.75625 3.28125 3.01875 3.01875C3.28125 2.75625 3.60194 2.625 3.98081 2.625H8.25V15.375ZM7.125 14.25V3.75H3.98081C3.91344 3.75 3.85813 3.77163 3.81488 3.81488C3.77163 3.85813 3.75 3.91344 3.75 3.98081V14.0192C3.75 14.0866 3.77163 14.1419 3.81488 14.1851C3.85813 14.2284 3.91344 14.25 3.98081 14.25H7.125ZM9.75 8.25V2.625H14.0192C14.3981 2.625 14.7188 2.75625 14.9813 3.01875C15.2438 3.28125 15.375 3.60194 15.375 3.98081V8.25H9.75ZM10.875 7.125H14.25V3.98081C14.25 3.91344 14.2284 3.85813 14.1851 3.81488C14.1419 3.77163 14.0866 3.75 14.0192 3.75H10.875V7.125ZM9.75 15.375V9.75H15.375V14.0192C15.375 14.3981 15.2438 14.7188 14.9813 14.9813C14.7188 15.2438 14.3981 15.375 14.0192 15.375H9.75ZM10.875 14.25H14.0192C14.0866 14.25 14.1419 14.2284 14.1851 14.1851C14.2284 14.1419 14.25 14.0866 14.25 14.0192V10.875H10.875V14.25Z" fill="#432818" fill-opacity="0.8"/>
</svg>
