<svg width="18" height="18" viewBox="0 0 18 18" fill="none" xmlns="http://www.w3.org/2000/svg">
<path d="M12 16.125C10.8558 16.125 9.88219 15.7236 9.07931 14.9207C8.27644 14.1178 7.875 13.1443 7.875 12C7.875 10.8558 8.27644 9.88219 9.07931 9.07931C9.88219 8.27644 10.8558 7.875 12 7.875C13.1443 7.875 14.1178 8.27644 14.9207 9.07931C15.7236 9.88219 16.125 10.8558 16.125 12C16.125 13.1443 15.7236 14.1178 14.9207 14.9207C14.1178 15.7236 13.1443 16.125 12 16.125ZM12 15C12.825 15 13.5312 14.7063 14.1188 14.1188C14.7063 13.5312 15 12.825 15 12C15 11.175 14.7063 10.4688 14.1188 9.88125C13.5312 9.29375 12.825 9 12 9C11.175 9 10.4688 9.29375 9.88125 9.88125C9.29375 10.4688 9 11.175 9 12C9 12.825 9.29375 13.5312 9.88125 14.1188C10.4688 14.7063 11.175 15 12 15ZM3.23081 14.625C2.85194 14.625 2.53125 14.4938 2.26875 14.2313C2.00625 13.9688 1.875 13.6481 1.875 13.2692V7.84331C1.875 7.74331 1.88919 7.63606 1.91756 7.52156C1.94594 7.40719 1.97888 7.3 2.01638 7.2L3.603 3.60581H3.24525C3.05675 3.60581 2.90387 3.54712 2.78662 3.42975C2.66925 3.3125 2.61056 3.15963 2.61056 2.97113V2.50969C2.61056 2.32119 2.66925 2.16831 2.78662 2.05106C2.90387 1.93369 3.05675 1.875 3.24525 1.875H8.00475C8.19325 1.875 8.34613 1.93369 8.46338 2.05106C8.58075 2.16831 8.63944 2.32119 8.63944 2.50969V2.97113C8.63944 3.15963 8.58075 3.3125 8.46338 3.42975C8.34613 3.54712 8.19325 3.60581 8.00475 3.60581H7.647L9.20194 7.14806C9.03169 7.23944 8.868 7.33944 8.71088 7.44806C8.55363 7.55669 8.40287 7.67931 8.25863 7.81594L6.43838 3.60581H4.81163L3 7.77844V13.2692C3 13.3366 3.02163 13.3919 3.06488 13.4351C3.10813 13.4784 3.16344 13.5 3.23081 13.5H6.57694C6.62506 13.7 6.689 13.8957 6.76875 14.0871C6.84863 14.2783 6.94188 14.4576 7.0485 14.625H3.23081ZM12 6.98081C11.576 6.93756 11.22 6.75994 10.932 6.44794C10.644 6.13581 10.5 5.76056 10.5 5.32219C10.5 4.88369 10.644 4.50844 10.932 4.19644C11.22 3.88444 11.576 3.70681 12 3.66356V6.98081C12.0433 6.55681 12.2209 6.20081 12.5329 5.91281C12.8449 5.62481 13.2201 5.48081 13.6586 5.48081C14.0971 5.48081 14.4724 5.62481 14.7844 5.91281C15.0964 6.20081 15.274 6.55681 15.3173 6.98081H12Z" fill="#432818" fill-opacity="0.4"/>
</svg>
