<svg width="18" height="18" viewBox="0 0 18 18" fill="none" xmlns="http://www.w3.org/2000/svg">
<path d="M2.07715 14.4227V13.2977H6.05796C5.80696 12.317 5.32596 11.471 4.61496 10.7599C3.90384 10.0489 3.0579 9.56791 2.07715 9.31691C2.3079 9.25928 2.53552 9.21603 2.76002 9.18716C2.98465 9.15828 3.21859 9.14384 3.46184 9.14384C5.00696 9.14384 6.31634 9.63734 7.38996 10.6243C8.46346 11.6113 9.00021 12.8775 9.00021 14.4227H2.07715ZM10.1252 14.4227C10.1252 14.0323 10.087 13.6378 10.0105 13.2392C9.93409 12.8407 9.81846 12.4545 9.66359 12.0805C10.131 11.2315 10.7853 10.5298 11.6267 9.97541C12.468 9.42103 13.4386 9.14384 14.5386 9.14384C14.7818 9.14384 15.0158 9.15828 15.2404 9.18716C15.4649 9.21603 15.6925 9.25928 15.9233 9.31691C14.9425 9.56791 14.0997 10.0489 13.3948 10.7599C12.6901 11.471 12.206 12.317 11.9425 13.2977H15.9233V14.4227H10.1252ZM9.08684 10.9945C9.03384 10.182 9.1309 9.42184 9.37802 8.71409C9.62515 8.00647 9.98721 7.38434 10.4642 6.84772C10.9411 6.31122 11.5134 5.87928 12.1811 5.55191C12.849 5.22453 13.5709 5.04353 14.3468 5.00891C13.5988 5.48003 12.9863 6.04272 12.5093 6.69697C12.0324 7.35134 11.679 8.05066 11.4491 8.79491C10.9713 9.03341 10.5211 9.35166 10.0986 9.74966C9.67596 10.1478 9.33871 10.5627 9.08684 10.9945ZM8.02821 9.77572C7.86859 9.61034 7.68734 9.44878 7.48446 9.29103C7.28146 9.13328 7.07227 8.99722 6.8569 8.88284C6.8714 8.79347 6.88609 8.69128 6.90096 8.57628C6.91584 8.46141 6.92327 8.34966 6.92327 8.24103C6.92327 7.36316 6.78409 6.53284 6.50571 5.75009C6.22734 4.96747 5.83484 4.25259 5.32821 3.60547C6.11946 3.92859 6.81465 4.41416 7.41377 5.06216C8.01277 5.71028 8.45315 6.48528 8.7349 7.38716C8.54352 7.74291 8.38821 8.12897 8.26896 8.54534C8.14971 8.96172 8.06946 9.37184 8.02821 9.77572Z" fill="#432818" fill-opacity="0.4"/>
</svg>
