<svg width="18" height="18" viewBox="0 0 18 18" fill="none" xmlns="http://www.w3.org/2000/svg">
<path d="M3.9375 14.8123V11.8123H2.8125V10.6873H3.9375V8.81229H2.8125V7.68729H3.9375V5.3291L6 3.2666L7.5 4.7666L9.01875 3.2666L10.5188 4.7666L12.0188 3.2666L14.0813 5.3291V7.68729H15.1875V8.81229H14.0813V10.6873H15.1875V11.8123H14.0813V14.8123H3.9375ZM5.0625 7.68729H6.9375V5.78923L6 4.85173L5.0625 5.78923V7.68729ZM8.0625 7.68729H9.9375V5.78923L9 4.85173L8.0625 5.78923V7.68729ZM11.0813 7.68729H12.9375V5.78923L12 4.85173L11.0813 5.7776V7.68729ZM5.0625 10.6873H6.9375V8.81229H5.0625V10.6873ZM8.0625 10.6873H9.9375V8.81229H8.0625V10.6873ZM11.0813 10.6873H12.9375V8.81229H11.0813V10.6873ZM5.0625 13.6873H6.9375V11.8123H5.0625V13.6873ZM8.0625 13.6873H9.9375V11.8123H8.0625V13.6873ZM11.0813 13.6873H12.9375V11.8123H11.0813V13.6873Z" fill="#432818" fill-opacity="0.4"/>
</svg>
