<svg width="18" height="18" viewBox="0 0 18 18" fill="none" xmlns="http://www.w3.org/2000/svg">
<path d="M1.875 5.26444V1.875H5.26444V3H3V5.26444H1.875ZM1.875 16.125V12.7356H3V15H5.26444V16.125H1.875ZM12.7356 16.125V15H15V12.7356H16.125V16.125H12.7356ZM15 5.26444V3H12.7356V1.875H16.125V5.26444H15ZM12.9159 12.9159H13.9328V13.9328H12.9159V12.9159ZM12.9159 10.8821H13.9328V11.8989H12.9159V10.8821ZM11.8989 11.8989H12.9159V12.9159H11.8989V11.8989ZM10.8821 12.9159H11.8989V13.9328H10.8821V12.9159ZM9.86531 11.8989H10.8821V12.9159H9.86531V11.8989ZM11.8989 9.86531H12.9159V10.8821H11.8989V9.86531ZM10.8821 10.8821H11.8989V11.8989H10.8821V10.8821ZM9.86531 9.86531H10.8821V10.8821H9.86531V9.86531ZM13.9328 4.06725V8.13469H9.86531V4.06725H13.9328ZM8.13469 9.86531V13.9328H4.06725V9.86531H8.13469ZM8.13469 4.06725V8.13469H4.06725V4.06725H8.13469ZM7.24031 13.0384V10.7597H4.96163V13.0384H7.24031ZM7.24031 7.24031V4.96163H4.96163V7.24031H7.24031ZM13.0384 7.24031V4.96163H10.7597V7.24031H13.0384Z" fill="#432818" fill-opacity="0.4"/>
</svg>
