<svg width="18" height="18" viewBox="0 0 18 18" fill="none" xmlns="http://www.w3.org/2000/svg">
<path d="M8.53856 15.375V14.25H14.0192C14.0817 14.25 14.1358 14.2308 14.1816 14.1923C14.2272 14.1539 14.25 14.1034 14.25 14.0409V8.79525C14.25 7.3615 13.737 6.1545 12.711 5.17425C11.6851 4.194 10.4481 3.70387 9 3.70387C7.55188 3.70387 6.31488 4.194 5.289 5.17425C4.263 6.1545 3.75 7.3615 3.75 8.79525V13.2114H3.1875C2.82788 13.2114 2.51925 13.0862 2.26163 12.8359C2.00388 12.5854 1.875 12.2803 1.875 11.9207V10.464C1.875 10.2207 1.94425 9.99788 2.08275 9.79538C2.22125 9.593 2.402 9.43031 2.625 9.30731L2.65969 8.34956C2.72119 7.53319 2.93319 6.77694 3.29569 6.08081C3.65819 5.38469 4.12306 4.77869 4.69031 4.26281C5.25769 3.74694 5.9125 3.345 6.65475 3.057C7.39713 2.769 8.17888 2.625 9 2.625C9.82113 2.625 10.6009 2.769 11.3394 3.057C12.0779 3.345 12.7327 3.745 13.3039 4.257C13.875 4.769 14.3399 5.37306 14.6985 6.06919C15.0571 6.76544 15.2711 7.52169 15.3403 8.33794L15.375 9.27694C15.5933 9.37981 15.7728 9.52694 15.9137 9.71831C16.0546 9.90969 16.125 10.1231 16.125 10.3586V12.0332C16.125 12.2687 16.0546 12.4821 15.9137 12.6735C15.7728 12.8649 15.5933 13.012 15.375 13.1149V14.0409C15.375 14.4101 15.2426 14.7247 14.9777 14.9848C14.7127 15.2449 14.3932 15.375 14.0192 15.375H8.53856ZM6.42469 10.1402C6.29544 10.0157 6.23081 9.86156 6.23081 9.67781C6.23081 9.49419 6.29544 9.33894 6.42469 9.21206C6.55406 9.08506 6.71056 9.02156 6.89419 9.02156C7.07794 9.02156 7.23444 9.08506 7.36369 9.21206C7.49306 9.33894 7.55775 9.49419 7.55775 9.67781C7.55775 9.86156 7.49306 10.0157 7.36369 10.1402C7.23444 10.2647 7.07794 10.3269 6.89419 10.3269C6.71056 10.3269 6.55406 10.2647 6.42469 10.1402ZM10.6363 10.1402C10.5069 10.0157 10.4423 9.86156 10.4423 9.67781C10.4423 9.49419 10.5069 9.33894 10.6363 9.21206C10.7656 9.08506 10.9221 9.02156 11.1058 9.02156C11.2894 9.02156 11.4459 9.08506 11.5753 9.21206C11.7046 9.33894 11.7692 9.49419 11.7692 9.67781C11.7692 9.86156 11.7046 10.0157 11.5753 10.1402C11.4459 10.2647 11.2894 10.3269 11.1058 10.3269C10.9221 10.3269 10.7656 10.2647 10.6363 10.1402ZM4.77844 9.15C4.70056 7.926 5.08131 6.87862 5.92069 6.00787C6.76006 5.13725 7.799 4.70194 9.0375 4.70194C10.0779 4.70194 10.9959 5.02381 11.7915 5.66756C12.5873 6.31131 13.0702 7.14469 13.2403 8.16769C12.1749 8.15519 11.1906 7.87544 10.2872 7.32844C9.38381 6.78131 8.69031 6.03131 8.20669 5.07844C8.01631 6.01106 7.61731 6.83556 7.00969 7.55194C6.40194 8.26831 5.65819 8.801 4.77844 9.15Z" fill="#432818" fill-opacity="0.4"/>
</svg>
