<svg width="120" height="177" viewBox="0 0 120 177" fill="none" xmlns="http://www.w3.org/2000/svg">
<path d="M36.496 16.7382L36.0858 16.9292C30.8013 19.3892 26.4172 23.4383 23.5459 28.511M36.496 16.7382L36.8267 13.8568C37.6354 6.80986 30.8774 1.29199 24.1345 3.49372M36.496 16.7382L44.8135 18.0178C49.455 18.7319 53.9944 19.9988 58.3348 21.7916L65.3395 24.6848M100.658 35.8691L98.1988 35.265C89.1261 33.0366 81.51 26.8971 77.4067 18.5041M77.4067 18.5041L78.9813 17.1442C82.1424 14.4142 86.18 12.912 90.3569 12.912M77.4067 18.5041C74.1349 21.5835 70.0753 23.6982 65.6767 24.6146L65.3395 24.6848M65.3395 24.6848L60.1424 28.6826C56.568 31.4322 55.6367 36.4318 57.9815 40.2839" stroke="#432818" stroke-width="6" stroke-linecap="round"/>
<path fill-rule="evenodd" clip-rule="evenodd" d="M105.335 59.9236C105.263 59.7601 105.189 59.5972 105.113 59.4348C103.856 56.7451 102.042 54.2094 99.7567 51.8825C91.216 43.1856 76.0945 37.4055 58.8642 37.4055C44.5254 37.4055 31.6468 41.4085 22.806 47.7643C22.7771 47.8063 22.7481 47.8482 22.719 47.8902C20.5937 49.5376 18.5848 51.328 16.7068 53.2471C12.8142 57.7034 10.5956 62.8404 10.5956 68.3092C10.5956 76.7327 15.8594 84.369 24.396 89.9434C25.1117 84.1505 27.2662 78.8034 30.4908 74.2705C31.09 73.4282 31.7262 72.614 32.3969 71.8303C33.6283 70.3915 34.9763 69.0554 36.4262 67.8367C38.0646 66.4597 39.833 65.2325 41.7105 64.1763C46.6937 61.3729 52.4451 59.7739 58.5699 59.7739C65.9422 59.7739 72.7735 62.0906 78.3753 66.0358C81.2276 68.0446 83.7612 70.4756 85.8851 73.2379C86.9392 74.6087 87.8924 76.0612 88.7335 77.5841C90.8583 81.431 92.2686 85.7276 92.7854 90.295C101.644 84.6923 107.133 76.9112 107.133 68.3092C107.133 65.4028 106.506 62.5902 105.335 59.9236Z" fill="#432818"/>
<path fill-rule="evenodd" clip-rule="evenodd" d="M105.335 59.9236C105.263 59.7601 105.189 59.5972 105.113 59.4348C105.424 59.7924 105.739 60.1452 106.06 60.4932C106.816 61.1271 107.547 61.8713 108.251 62.7167C113.513 69.0394 116.917 77.9389 117.14 91.7904V94.4392L117.137 94.7749C117.045 104.504 114.581 115.803 110.296 126.825C100.447 152.158 80.9781 176.031 58.5699 176.031C26.2226 176.031 0 126.557 0 94.2095C0 91.5626 0.17558 88.9567 0.515709 86.4028C1.98458 75.3745 6.5222 65.3163 13.2419 57.1149C14.3399 55.7747 15.4961 54.4842 16.7068 53.2471C12.8142 57.7034 10.5956 62.8404 10.5956 68.3092C10.5956 76.7327 15.8594 84.369 24.396 89.9434C24.2233 91.3412 24.1343 92.765 24.1343 94.2095C24.1343 113.228 39.5517 152.779 58.5699 152.779C70.289 152.779 80.6407 137.761 86.8605 121.784C90.7345 111.832 93.0055 101.509 93.0055 94.2095C93.0055 92.8859 92.9308 91.5797 92.7854 90.295C101.644 84.6923 107.133 76.9112 107.133 68.3092C107.133 65.4028 106.506 62.5902 105.335 59.9236Z" fill="#99582A"/>
<path d="M110.051 45.5633C110.6 46.3098 110.318 47.4483 109.422 48.1063C108.527 48.7643 107.356 48.6926 106.808 47.9462C106.259 47.1998 106.541 46.0613 107.436 45.4033C108.332 44.7452 109.503 44.8169 110.051 45.5633Z" fill="#432818"/>
<path d="M114.376 42.3862C114.925 43.1326 114.643 44.2712 113.747 44.9292C112.852 45.5872 111.681 45.5155 111.133 44.7691C110.584 44.0227 110.866 42.8841 111.761 42.2261C112.657 41.5681 113.828 41.6398 114.376 42.3862Z" fill="#432818"/>
<path fill-rule="evenodd" clip-rule="evenodd" d="M98.0801 40.8109C98.1372 40.346 98.2259 39.8862 98.3456 39.4351L98.3451 39.4245L98.3444 39.4083C98.1994 39.8839 98.1102 40.3544 98.0801 40.8109ZM107.051 41.6921C107.615 42.46 107.31 43.643 106.368 44.3344C105.427 45.0258 104.207 44.9638 103.643 44.1959C103.079 43.4281 103.384 42.245 104.326 41.5536C105.267 40.8622 106.487 40.9242 107.051 41.6921Z" fill="#432818"/>
<path fill-rule="evenodd" clip-rule="evenodd" d="M109.06 38.1953C108.775 38.4046 108.538 38.6481 108.355 38.9067C107.866 39.5966 107.762 40.3939 108.161 40.9368C108.709 41.6832 110.001 41.666 111.046 40.8983C111.532 40.5413 111.879 40.0847 112.056 39.6234C112.26 39.0929 112.239 38.556 111.945 38.1568C111.741 37.8784 111.433 37.7063 111.073 37.6396C111.02 37.6298 110.965 37.6222 110.91 37.617C110.336 37.5626 109.658 37.7562 109.06 38.1953Z" fill="#432818"/>
<path fill-rule="evenodd" clip-rule="evenodd" d="M111.046 31.4914C111.017 31.4746 110.989 31.4581 110.96 31.4418C110.481 31.173 109.937 30.9868 109.348 30.8824C107.147 30.4918 104.308 31.2426 101.799 33.0856C99.7116 34.6193 98.2774 36.597 97.6903 38.4956C97.6907 38.505 97.6911 38.5144 97.6915 38.5238C97.5635 38.9982 97.4683 39.4815 97.4062 39.9701C97.3303 41.0547 97.5731 42.0623 98.1755 42.8823C99.1034 44.1453 100.711 44.7273 102.568 44.6501C102.034 43.7049 101.759 42.6727 101.729 41.6481C101.723 41.4577 101.726 41.2676 101.738 41.0783C101.759 40.7309 101.808 40.3864 101.884 40.0485C101.971 39.6668 102.094 39.2936 102.251 38.9345C102.667 37.9811 103.329 37.1262 104.22 36.471C105.294 35.6825 106.544 35.2992 107.794 35.2915C108.43 35.2877 109.067 35.3812 109.681 35.5682C109.985 35.661 110.284 35.7768 110.574 35.9152C111.307 36.2647 111.986 36.7581 112.564 37.3877C113.237 35.6001 113.179 33.8463 112.231 32.5565C111.911 32.1207 111.51 31.766 111.046 31.4914Z" fill="#432818"/>
<path fill-rule="evenodd" clip-rule="evenodd" d="M110.999 31.4684C110.971 31.4518 110.943 31.4356 110.914 31.4196C110.998 31.4395 111.082 31.4581 111.167 31.4754C111.345 31.4888 111.533 31.521 111.727 31.5713C113.179 31.9469 114.642 32.9025 116.182 34.9312L116.47 35.3237L116.506 35.3737C117.552 36.825 118.424 38.762 119.002 40.8524C120.33 45.6563 120.102 51.2701 116.849 53.66C112.152 57.1099 102.96 52.5758 99.4391 47.7828C99.151 47.3906 98.8928 46.9857 98.6642 46.571C97.677 44.7803 97.2409 42.806 97.3237 40.8741C97.3372 40.5584 97.3646 40.2438 97.4057 39.9314C97.3257 41.0069 97.5627 42.0047 98.158 42.815C99.075 44.0631 100.67 44.6332 102.516 44.5488C102.644 44.7743 102.786 44.9948 102.943 45.2088C105.013 48.0268 111.557 52.2431 114.318 50.2147C116.019 48.9649 115.887 45.6356 115.051 42.6048C114.53 40.7171 113.736 38.9451 112.941 37.8636C112.797 37.6675 112.644 37.4819 112.483 37.307C113.16 35.5321 113.109 33.7937 112.173 32.5191C111.857 32.0885 111.46 31.7386 110.999 31.4684Z" fill="#432818"/>
<path d="M15.2517 10.0453C14.8088 10.5614 13.9477 10.549 13.3284 10.0176C12.709 9.48613 12.5659 8.63691 13.0088 8.12079C13.4517 7.60466 14.3128 7.61708 14.9321 8.14851C15.5515 8.67995 15.6945 9.52917 15.2517 10.0453Z" fill="#432818"/>
<path d="M18.242 12.6114C17.7991 13.1275 16.9381 13.1151 16.3187 12.5837C15.6994 12.0522 15.5563 11.203 15.9991 10.6869C16.442 10.1708 17.3031 10.1832 17.9225 10.7146C18.5418 11.246 18.6849 12.0953 18.242 12.6114Z" fill="#432818"/>
<path fill-rule="evenodd" clip-rule="evenodd" d="M16.6636 0.693861C17.0056 0.657517 17.3492 0.644609 17.6917 0.655385L17.6992 0.653283L17.7107 0.650037C17.3464 0.625269 16.9951 0.639591 16.6636 0.693861ZM17.5225 7.25681C17.0669 7.78777 16.17 7.76552 15.5192 7.2071C14.8685 6.64868 14.7102 5.76556 15.1658 5.2346C15.6214 4.70364 16.5183 4.7259 17.1691 5.28431C17.8199 5.84273 17.9781 6.72585 17.5225 7.25681Z" fill="#432818"/>
<path fill-rule="evenodd" clip-rule="evenodd" d="M20.3573 8.11335C20.1603 7.94429 19.9467 7.81507 19.7313 7.72698C19.1568 7.49205 18.5692 7.54986 18.2471 7.92525C17.8042 8.44137 18.031 9.3624 18.7535 9.98241C19.0896 10.2708 19.4738 10.4433 19.8332 10.4933C20.2464 10.5509 20.6269 10.4466 20.8638 10.1705C21.0289 9.97805 21.1009 9.72928 21.0889 9.46081C21.0871 9.42107 21.0835 9.38089 21.078 9.3404C21.0216 8.92096 20.7705 8.46794 20.3573 8.11335Z" fill="#432818"/>
<path fill-rule="evenodd" clip-rule="evenodd" d="M25.482 8.42077C25.4893 8.39762 25.4964 8.37434 25.5032 8.35095C25.6159 7.96347 25.6589 7.54386 25.6358 7.10519C25.5497 5.4657 24.5415 3.56012 22.8068 2.07166C21.3632 0.832966 19.7105 0.135458 18.255 0.0307007C18.2484 0.0325636 18.2417 0.0344066 18.2351 0.0362409C17.8745 0.0234411 17.513 0.0355315 17.1532 0.0722623C16.3649 0.198031 15.6845 0.538976 15.198 1.10598C14.4486 1.97932 14.2992 3.22578 14.6627 4.54118C15.2501 4.00241 15.9427 3.63413 16.6706 3.44273C16.8059 3.40716 16.9424 3.3777 17.0796 3.35439C17.3316 3.31159 17.5862 3.28951 17.8406 3.28842C18.128 3.28717 18.4152 3.31271 18.6982 3.3654C19.4493 3.50522 20.1706 3.83628 20.7872 4.36538C21.5294 5.00225 22.0111 5.83258 22.2241 6.72554C22.3325 7.18021 22.3713 7.65112 22.3394 8.121C22.3236 8.35418 22.2903 8.58711 22.2395 8.81767C22.1112 9.40007 21.871 9.96738 21.5167 10.4856C22.9069 10.6699 24.1518 10.3374 24.917 9.44552C25.1756 9.14419 25.3627 8.79844 25.482 8.42077Z" fill="#432818"/>
<path fill-rule="evenodd" clip-rule="evenodd" d="M25.4905 8.38358C25.4977 8.36065 25.5046 8.33759 25.5112 8.31441C25.511 8.37779 25.5116 8.44114 25.5133 8.50444C25.5334 8.63445 25.5414 8.77372 25.5377 8.92093C25.51 10.022 25.0694 11.227 23.874 12.6654L23.6412 12.9368L23.6114 12.9709C22.7469 13.9598 21.5062 14.9052 20.107 15.6654C16.8913 17.4125 12.8381 18.1815 10.5887 16.2513C7.34148 13.4651 9.05855 6.13743 11.9023 2.82325C12.135 2.55206 12.3817 2.3002 12.6404 2.06783C13.7574 1.06445 15.0971 0.424773 16.4927 0.163288C16.7207 0.120563 16.9503 0.0879238 17.1806 0.0654596C16.398 0.186751 15.7237 0.521965 15.2429 1.08227C14.5024 1.94531 14.3595 3.18111 14.7263 4.48755C14.5861 4.61588 14.452 4.75409 14.325 4.90209C12.6531 6.85063 10.7236 12.2309 12.6328 13.8691C13.8092 14.8785 16.1686 14.2315 18.1976 13.1303C19.4614 12.4443 20.5969 11.5822 21.2386 10.8344C21.355 10.6988 21.4623 10.5585 21.5607 10.4144C22.9425 10.6033 24.1776 10.2789 24.9338 9.39762C25.1893 9.09985 25.3737 8.7577 25.4905 8.38358Z" fill="#432818"/>
<path fill-rule="evenodd" clip-rule="evenodd" d="M97.736 18.1559L103.625 14.6724C103.868 14.5289 104.016 14.268 104.016 13.9861L104.016 7.29613C104.016 7.14229 103.849 7.04643 103.717 7.12395L97.7273 10.6177C97.6049 10.6891 97.5296 10.8202 97.5296 10.962V18.0382C97.5296 18.1441 97.6448 18.2099 97.736 18.1559ZM96.5089 18.1559C96.6076 18.2143 96.7322 18.1432 96.7322 18.0285V10.9223C96.7322 10.7811 96.6576 10.6505 96.536 10.5788L90.6128 7.08664C90.48 7.0083 90.3123 7.10409 90.3123 7.25835V14.0365C90.3123 14.3184 90.4611 14.5793 90.7037 14.7228L96.5089 18.1559ZM91.1452 6.47491C91.0145 6.39786 91.0144 6.20888 91.1449 6.13164L96.6716 2.86238C96.922 2.7143 97.2331 2.71428 97.4835 2.86234L103.097 6.18201C103.227 6.25924 103.227 6.44824 103.097 6.52529L97.3661 9.90386C97.2411 9.97751 97.086 9.97751 96.9611 9.90386L91.1452 6.47491Z" fill="#432818"/>
<path fill-rule="evenodd" clip-rule="evenodd" d="M14.0184 44.8293L23.8841 42.592C24.2905 42.4999 24.618 42.2 24.7456 41.8033L27.7741 32.3871C27.8438 32.1706 27.6523 31.9601 27.4302 32.009L17.4187 34.2152C17.214 34.2603 17.0486 34.4108 16.9845 34.6104L13.7811 44.5701C13.7332 44.7192 13.8657 44.8639 14.0184 44.8293ZM12.2913 44.2738C12.4037 44.4005 12.6114 44.3569 12.6633 44.1956L15.8802 34.1934C15.9441 33.9948 15.8982 33.7772 15.7595 33.6213L9.00351 26.0246C8.85195 25.8542 8.57255 25.9131 8.50272 26.1302L5.43433 35.6705C5.30673 36.0672 5.39809 36.5018 5.67463 36.8136L12.2913 44.2738ZM10.0297 25.4046C9.88065 25.237 9.96601 24.9709 10.1848 24.9213L19.4436 22.8217C19.8629 22.7266 20.3009 22.8674 20.5862 23.1891L26.9842 30.4027C27.133 30.5705 27.0473 30.8365 26.8284 30.8857L17.2333 33.047C17.0242 33.0941 16.8059 33.0239 16.6634 32.8636L10.0297 25.4046Z" fill="#432818"/>
<path fill-rule="evenodd" clip-rule="evenodd" d="M22.719 47.8902C20.5937 49.5376 18.5848 51.328 16.7068 53.2471C18.4282 51.2763 20.477 49.4386 22.806 47.7643L22.7534 47.8405L22.719 47.8902Z" fill="#99582A"/>
<path d="M55.921 87.1458C55.921 92.5099 50.3866 96.8584 43.5595 96.8584C36.7325 96.8584 31.198 92.5099 31.198 87.1458C31.198 81.7816 36.7325 77.4332 43.5595 77.4332C50.3866 77.4332 55.921 81.7816 55.921 87.1458Z" fill="#432818"/>
<path d="M74.1689 77.4332C72.3074 77.4332 70.5419 77.7565 68.9585 78.3356C64.7351 79.8802 61.8075 83.2443 61.8075 87.1458C61.8075 92.5099 67.3419 96.8584 74.1689 96.8584C77.3444 96.8584 80.2403 95.9176 82.4296 94.3714C84.9471 92.5934 86.5304 90.0148 86.5304 87.1458C86.5304 85.1454 85.7609 83.2864 84.4416 81.7414C84.2463 81.5127 84.039 81.2908 83.8203 81.0764C81.5549 78.8554 78.0733 77.4332 74.1689 77.4332Z" fill="#432818"/>
<path d="M82.4099 108.337C82.4099 113.051 77.7979 116.872 72.1087 116.872C66.4195 116.872 61.8075 113.051 61.8075 108.337C61.8075 103.623 66.4195 99.8016 72.1087 99.8016C77.7979 99.8016 82.4099 103.623 82.4099 108.337Z" fill="#432818"/>
<path d="M54.1551 108.337C54.1551 113.051 49.5431 116.872 43.8539 116.872C38.1646 116.872 33.5526 113.051 33.5526 108.337C33.5526 103.623 38.1646 99.8016 43.8539 99.8016C49.5431 99.8016 54.1551 103.623 54.1551 108.337Z" fill="#432818"/>
<path d="M55.921 125.702C55.921 128.953 52.495 131.588 48.2687 131.588C44.0424 131.588 40.6163 128.953 40.6163 125.702C40.6163 122.451 44.0424 119.815 48.2687 119.815C52.495 119.815 55.921 122.451 55.921 125.702Z" fill="#432818"/>
<path d="M77.1122 125.702C77.1122 128.953 73.6861 131.588 69.4598 131.588C65.2335 131.588 61.8075 128.953 61.8075 125.702C61.8075 122.451 65.2335 119.815 69.4598 119.815C73.6861 119.815 77.1122 122.451 77.1122 125.702Z" fill="#432818"/>
<path d="M72.9917 139.535C72.9917 141.973 70.488 143.95 67.3996 143.95C64.3111 143.95 61.8075 141.973 61.8075 139.535C61.8075 137.097 64.3111 135.12 67.3996 135.12C70.488 135.12 72.9917 137.097 72.9917 139.535Z" fill="#432818"/>
<path d="M55.921 139.535C55.921 141.973 53.4174 143.95 50.3289 143.95C47.2405 143.95 44.7368 141.973 44.7368 139.535C44.7368 137.097 47.2405 135.12 50.3289 135.12C53.4174 135.12 55.921 137.097 55.921 139.535Z" fill="#432818"/>
</svg>
