<svg width="109" height="84" viewBox="0 0 109 84" fill="none" xmlns="http://www.w3.org/2000/svg">
<path d="M21.7847 21.1821C22.3907 20.0754 22.2834 18.3949 22.9983 17.3378C23.5257 16.558 24.5439 16.1398 25.4694 16.3458C25.9989 16.4637 26.7169 16.7741 27.2575 16.736C27.9785 16.661 28.5534 16.2463 29.2786 16.1147C30.6786 15.8431 31.6405 16.7084 32.0662 17.9797C32.3574 18.8494 32.8303 19.8043 32.9752 20.7183C33.6859 20.8872 38.9108 22.608 39.1378 22.7848C39.2715 22.8891 39.3384 23.0883 39.358 23.2496C39.3811 23.4402 39.3473 23.6708 39.2169 23.8203C39.1434 23.9046 39.0392 23.9397 38.9323 23.9605C38.3094 24.0818 37.608 24.0525 36.9718 24.0753C35.7792 24.1218 34.5861 24.157 33.3928 24.181C33.3978 24.9291 33.1 25.8018 33.1883 26.4266C33.2901 27.1476 34.073 28.0291 33.8482 28.862C33.7888 29.0823 33.6682 29.2482 33.5468 29.4296C33.1421 29.5313 32.853 29.5865 32.44 29.6506C32.2787 30.1346 32.1205 30.7038 31.9919 31.1985C31.5181 33.0191 30.1002 33.1651 28.5469 32.4471C28.3461 32.8376 28.2185 33.2626 28.0791 33.6795C28.2484 33.765 28.415 33.8623 28.5803 33.9558C28.9188 34.5132 28.9542 35.3404 29.3808 35.8467C30.5443 37.2277 31.709 38.6209 32.8934 39.986C33.1564 40.2891 33.6264 40.7273 33.4678 41.1483C33.0767 41.5183 32.6098 41.2188 32.2975 40.9314C32.0966 41.5299 31.9458 41.891 31.8395 42.5259C32.6007 42.2211 34.8983 41.0407 35.4095 40.4385C35.9267 39.8294 36.7876 37.8742 37.1937 37.0502C38.4338 34.5129 39.6897 31.9832 40.9613 29.4614C41.4548 28.4896 41.8928 27.4479 42.4452 26.5138C43.7461 24.3133 45.6117 25.2117 47.4518 25.797L50.5933 26.7835C51.5124 27.0789 52.4557 27.2914 53.3722 27.5968C54.434 27.9508 54.9763 28.439 55.1945 29.5411C55.2132 30.4979 54.8433 31.127 54.4265 31.9943C54.3323 32.1725 54.2089 32.4243 54.1083 32.5915C53.9619 32.8196 53.7671 33.2266 53.6702 33.4863C52.9712 34.8785 52.0021 36.7656 51.401 38.1991C51.7181 38.4953 51.8263 38.5636 51.9332 38.9894C51.9333 39.3131 51.9423 39.5572 51.7974 39.8585L51.4483 40.2596L51.3299 41.2714L51.3084 41.3463C51.2153 41.4839 51.0464 41.7502 50.9507 41.8727C50.7205 42.1615 50.6196 42.5072 50.4324 42.8058C50.1271 43.2928 49.752 43.8307 49.413 44.2959C48.9816 44.888 48.3942 44.8144 47.7223 44.8994C47.5274 45.2306 47.3126 45.7309 47.1347 46.0897C46.6139 47.1423 46.1057 48.2012 45.61 49.2658C45.3275 49.8659 45.0468 50.5168 44.6808 51.0706C43.9364 52.2223 42.4305 52.4105 41.2134 51.8824C38.7513 50.8141 36.1089 49.9443 33.6975 48.764C33.3402 48.589 33.0553 48.0994 32.8906 47.7567C32.4672 48.0709 32.0368 48.4475 31.6166 48.7796C31.8569 49.9282 31.963 52.9874 31.7895 54.1576C31.5866 54.359 31.2538 54.9838 31.0899 55.2615C31.2641 57.2653 31.3492 59.2469 31.5017 61.247C31.6328 62.6715 31.8479 64.1003 31.8763 65.5317C31.8873 66.0882 32.2134 67.41 31.5698 67.6198C30.8472 67.5864 30.9087 66.2742 30.8534 65.7051C30.7528 64.7013 30.6717 63.6954 30.6102 62.6879L30.2272 57.4715C30.1825 56.8461 30.1765 56.2356 30.1268 55.606C29.1967 55.5498 27.9134 55.5858 26.9493 55.58C24.4122 55.5657 21.8749 55.5694 19.3377 55.5906C18.9793 57.0438 18.9315 58.4667 19.4113 59.9019C19.6531 60.6126 19.9496 61.3196 20.0472 62.0673C20.1549 62.8925 20.1514 63.7171 20.1486 64.5476C20.1456 65.4432 20.1623 66.3527 20.1065 67.2467C19.921 67.4508 19.8398 67.5462 19.5726 67.5912C19.4223 67.5398 19.3628 67.5069 19.2697 67.3755C18.9174 66.8779 19.1995 63.1347 19.0636 62.2088C18.9944 61.7372 18.8048 61.3005 18.6388 60.8569C18.3578 60.1049 18.1147 59.3338 18.0592 58.5288C17.9816 57.4026 18.1034 56.3145 18.3562 55.218L18.2914 55.1375C17.9348 54.6875 17.5965 54.1252 17.5733 53.5423C17.5153 52.0897 17.7545 50.6573 17.765 49.1897C17.803 45.8759 17.181 42.3485 17.5003 39.0632C17.7546 36.4471 19.076 34.7104 20.6796 32.7885C21.0363 32.3609 21.2451 30.8529 21.8701 30.4634C22.1185 30.3086 22.3539 30.388 22.6118 30.4285C22.6325 30.2347 22.8006 29.5319 22.7939 29.4928C22.6588 28.7014 22.0739 27.8141 21.8167 27.0614C21.5425 26.2587 21.4881 25.4868 21.4165 24.6666C19.8996 24.6768 18.3749 24.8271 16.843 24.8203C16.301 24.8179 15.5257 24.8074 15.7304 23.9348C15.8924 23.4568 16.5401 23.3189 16.9146 23.1503C18.4743 22.4479 20.2427 21.8738 21.7847 21.1821Z" fill="#4C4F50"/>
<path d="M31.9215 40.4172L32.2975 40.9313C32.0966 41.5298 31.9458 41.8909 31.8395 42.5258C31.757 42.5931 31.3398 42.832 31.2248 42.9007C31.0953 42.4422 30.9517 41.4981 30.8325 40.958C31.16 40.8226 31.6251 40.6034 31.9215 40.4172Z" fill="#432818"/>
<path d="M30.3637 38.6982C31.0004 39.2952 31.3662 39.7447 31.9215 40.4174C31.6251 40.6035 31.16 40.8227 30.8325 40.9581C30.5964 40.2234 30.4392 39.4659 30.3637 38.6982Z" fill="#432818"/>
<path d="M37.4626 38.7283C38.5968 36.3419 39.8943 33.867 41.0655 31.4887C41.5946 30.3983 42.1369 29.3142 42.6923 28.2368C42.9527 27.7339 43.2235 27.1712 43.5359 26.7023C43.7688 26.3528 44.4632 26.0445 44.873 26.1168C45.7547 26.2724 46.6071 26.5691 47.4566 26.8418L50.2007 27.7006C51.2172 28.02 52.238 28.2762 53.2514 28.6228C53.7714 28.8008 54.3345 29.3374 54.1892 29.9309C54.0099 30.6614 53.5553 31.4398 53.2197 32.1185L51.5833 35.5111C51.2576 36.1767 50.8127 36.9667 50.5574 37.6338C49.6614 37.0925 48.5593 36.2974 47.7678 37.4583C47.4474 37.8289 47.6638 37.9756 47.3918 38.2087C47.2708 38.2497 46.8682 38.4998 46.7338 38.58C46.4982 39.1486 46.6343 39.2206 46.5883 39.7961C46.5755 39.9563 46.2158 40.1964 46.1682 40.5006C46.1107 40.8681 46.3119 41.2966 46.2082 41.588C45.8092 41.812 45.7581 42.5323 45.9023 42.9163C46.0572 43.329 46.6558 43.8191 47.0517 44.0009C46.3857 45.0633 45.845 46.6172 45.2016 47.7556C44.5557 48.8985 44.3033 50.294 43.145 51.1253C42.9011 51.1659 42.3055 51.2181 42.0899 51.14C41.2615 50.8396 40.3361 50.4506 39.5205 50.1101C37.8897 49.4292 36.2234 48.8433 34.6249 48.1072C33.9573 47.7998 33.9364 47.7314 33.7103 47.0783C34.3578 46.3799 36.4697 44.7854 37.3159 44.0703C37.4109 43.9901 38.1211 43.9293 38.2984 43.8642C38.5543 43.7702 38.8583 43.5793 39.1039 43.4434C39.3204 43.4736 39.2584 43.7177 39.4299 43.7778C41.3274 44.4421 42.1424 42.8607 42.4985 41.2863C42.5858 40.9001 42.3892 40.4299 42.2722 40.0724C43.1241 40.1872 44.7299 40.7151 44.9962 39.4537C45.379 37.7047 42.3294 37.6591 41.1753 37.4198C39.5438 37.0815 38.5891 37.861 37.4626 38.7283Z" fill="#FEFEFE"/>
<path d="M43.5461 28.0476C44.2597 28.069 44.9407 28.3623 45.6215 28.5741L48.4387 29.4535C49.6294 29.8348 50.8137 30.2225 52.0138 30.5716C52.6553 30.7581 52.9172 31.0415 52.615 31.718C52.1053 32.8595 51.5123 33.9565 50.9816 35.0902C50.7896 35.5005 50.2406 37.0796 49.6814 36.3648C49.571 35.8202 50.0817 35.1303 50.3211 34.6416C50.8445 33.5527 51.3745 32.4669 51.9112 31.3844C51.0363 31.1796 49.7473 30.6479 48.7121 30.377C47.1042 29.9279 45.461 29.2819 43.8904 28.841C43.4623 29.408 43.1827 30.1456 42.8729 30.7855C42.462 31.6346 40.1643 36.5675 39.8225 36.8313C39.7423 36.8932 39.643 36.9044 39.5452 36.8793C39.3771 36.8362 39.3195 36.7675 39.2266 36.6355C39.1959 36.3355 39.825 35.2019 39.9867 34.8714L41.4339 31.9296C42.0177 30.7493 42.5756 29.4933 43.2122 28.3447C43.2985 28.189 43.3848 28.1176 43.5461 28.0476Z" fill="#4C4F50"/>
<path d="M45.5334 43.8071C45.8034 43.8253 45.923 43.8438 46.0797 44.0645C46.0501 44.6883 44.8733 46.6759 44.5755 47.3655C44.4009 47.6582 43.9905 48.8255 43.6671 48.9286C43.0268 49.1328 41.0956 48.1972 40.5936 47.9954C39.2486 47.462 37.907 46.9202 36.5688 46.3701C36.1871 46.2724 35.9948 46.2381 35.9392 45.7941C36.0468 45.472 36.2517 45.4467 36.5714 45.5279C37.1951 45.6862 37.78 46.0097 38.3781 46.2247C40.0046 46.8092 41.626 47.6586 43.2639 48.181C43.751 47.31 45.0806 44.2451 45.5334 43.8071Z" fill="#4C4F50"/>
<path d="M47.2188 27.4785C47.3397 27.5008 48.1425 27.7705 48.2966 27.8397C48.7793 28.0567 51.115 28.2533 50.1256 29.1107C49.5554 29.0331 47.1343 28.4339 46.9262 27.9419C46.9706 27.7351 47.0794 27.6421 47.2188 27.4785Z" fill="#4C4F50"/>
<path d="M37.55 47.6384C38.0492 47.703 39.4596 48.2408 39.8631 48.617C40.0901 48.8286 39.9491 49.1124 39.7415 49.3089C39.221 49.1853 38.6833 48.9621 38.1761 48.7838C37.7845 48.6462 37.2329 48.4764 37.2139 48.0025C37.2984 47.7979 37.3665 47.7717 37.55 47.6384Z" fill="#454E4C"/>
<path d="M19.9231 54.512C19.04 54.6154 18.4841 53.8914 18.499 53.1235C18.5246 51.8059 18.8891 50.4508 18.8118 49.109C18.6933 47.0509 18.6489 44.8807 18.4692 42.8407C18.1897 39.6698 18.5267 36.9764 20.6223 34.4476C20.9098 34.1 21.094 33.7989 21.4982 33.5269C21.9634 33.7978 22.4666 34.2278 22.8922 34.5743C22.1389 34.6339 21.8372 35.0263 21.8273 35.7671C21.3842 35.8052 20.2073 36.0501 20.8469 36.7111C21.3909 36.9613 22.2615 36.6659 22.9152 36.9933C23.2265 37.1493 23.6763 37.3799 23.8937 37.6586C24.5124 38.4522 24.9683 39.4933 25.4503 40.3814C25.9122 41.2324 26.47 42.1652 26.8457 43.0385C26.0842 43.7786 25.3912 44.5281 24.7434 45.3712C24.6421 45.5029 24.5116 45.6869 24.3984 45.8003L23.6486 46.9911C23.1201 46.3767 22.6551 45.5035 22.1548 44.8836C21.479 44.0462 20.541 41.8741 19.6417 41.4418C18.8112 41.9273 19.4369 42.2542 19.4784 42.9143C19.7946 43.0394 21.4031 45.6253 21.7187 46.0246C22.0929 46.498 22.644 47.4245 23.0461 47.952C23.0007 49.5617 23.5675 49.4335 24.6963 50.1973C24.5714 51.1589 23.9247 52.5633 23.1317 53.1892C22.5686 53.6339 20.8821 54.1829 20.5387 54.5115L19.9231 54.512Z" fill="#FEFEFE"/>
<path d="M19.4784 42.9143C19.7946 43.0394 21.4031 45.6253 21.7187 46.0245C22.0929 46.498 22.644 47.4244 23.0461 47.952C23.0007 49.5617 23.5675 49.4335 24.6963 50.1973C24.5714 51.1589 23.9247 52.5633 23.1317 53.1892C22.5687 53.6338 20.8821 54.1829 20.5387 54.5114L19.9232 54.512C19.3931 53.5331 19.6988 52.4231 19.7939 51.3476C19.8776 50.434 19.8979 49.5157 19.8547 48.5993C19.8145 47.6627 19.3488 43.4904 19.4784 42.9143Z" fill="#432818"/>
<path d="M19.6416 41.4418C19.4804 40.9124 19.1558 39.69 19.5917 39.2529C19.6792 39.2352 19.7951 39.1878 19.8564 39.2709C21.2124 41.1078 22.3364 43.1086 23.776 44.9013C24.007 45.189 24.1826 45.518 24.3984 45.8003L23.6486 46.9911C23.12 46.3767 22.6551 45.5035 22.1548 44.8836C21.479 44.0462 20.541 41.8741 19.6416 41.4418Z" fill="#432818"/>
<path d="M31.0567 24.2431C31.4154 24.2173 31.9199 24.2274 32.2896 24.2239C32.2773 24.9633 32.0075 26.1256 32.2 26.7373C32.3698 27.2767 32.6757 27.8582 32.847 28.4769L32.8687 28.557C30.5805 28.7624 31.7973 30.4151 30.4381 31.8979C29.5139 31.8062 28.1858 31.3638 27.5042 30.7334C27.158 30.4133 26.8612 30.0924 26.4908 29.7705C26.2596 29.9917 26.1689 30.1038 25.9721 30.3585C26.426 31.3136 26.6856 31.4813 27.5545 32.0855L27.3354 32.6588C27.28 32.8344 27.2735 32.8982 27.1604 33.0376C26.9165 33.0564 23.9516 31.2288 23.455 30.9521C23.7083 30.4313 23.7693 30.1285 23.893 29.5728C24.5507 28.8808 25.1323 28.9561 25.6766 28.0058C25.3263 27.2153 25.0958 27.5049 24.8921 26.4854C25.0061 26.1111 25.0758 25.8007 25.44 25.5887C26.025 25.4955 26.1463 26.3973 26.653 26.4907C27.7754 26.6973 28.4541 25.1765 28.6899 24.3266L31.0567 24.2431Z" fill="#FEFEFE"/>
<path d="M40.2142 38.3842C40.3465 38.3718 40.4794 38.3657 40.6123 38.3657C41.2212 38.3692 43.6374 38.7604 44.0297 39.1612L43.994 39.2347C43.4582 39.395 41.5387 38.9621 40.8849 38.9638C40.7587 38.9954 40.5008 39.1928 40.4509 39.2932C40.3232 39.5502 40.7023 39.8068 40.9 40.0015C41.229 40.3253 41.3141 40.4223 41.4538 40.8749C41.5919 41.3227 40.6876 43.3657 40.1354 42.8772C40.2103 42.4936 40.2154 41.9786 39.7679 41.8411C39.5064 41.8846 38.7486 42.4925 38.4022 42.6965C37.8156 43.0418 37.1093 42.9832 36.7313 43.2314C36.2389 43.5547 35.5165 44.2198 35.0385 44.6249C33.9401 45.5668 32.8237 46.4878 31.6899 47.3871C30.9286 48.0704 29.3863 49.3127 28.4132 49.6641C28.0824 49.7834 27.7116 49.7708 27.3633 49.7601C27.8136 48.6708 28.6073 46.3152 29.1221 45.342C29.3246 44.959 32.4187 43.4641 33.0313 43.111C34.0843 42.543 35.1043 41.9645 36.1146 41.3227C37.527 40.4255 38.4842 38.6043 40.2142 38.3842Z" fill="#FEFEFE"/>
<path d="M25.7866 50.9635C26.6507 51.1073 26.8004 50.7467 27.1335 50.7739C28.4527 50.8817 28.8572 50.7925 30.0392 49.9568C30.2481 49.8069 30.455 49.6543 30.6599 49.499C30.7129 50.9604 31.2002 53.426 30.2936 54.5257C27.1856 54.5235 23.6029 54.6216 20.5388 54.5114C20.8821 54.1828 22.5687 53.6337 23.1317 53.1891C23.9247 52.5632 24.5714 51.1588 24.6963 50.1972C25.0776 50.4141 25.4403 50.6928 25.7866 50.9635Z" fill="#FEFEFE"/>
<path d="M29.5496 17.1519C31.1737 16.9357 31.4403 19.4239 31.9197 20.6577C30.2466 20.6896 28.5738 20.7386 26.9017 20.8048C26.0051 20.8382 24.8599 20.9155 23.985 20.9058C23.7544 20.9427 23.261 20.9535 23.01 20.9661C23.1688 20.1512 23.4862 18.4649 23.9962 17.8001C24.7095 16.8703 25.9406 17.6914 27.0533 17.7517C28.3029 17.8194 28.7403 17.2383 29.5496 17.1519Z" fill="#99582A"/>
<path d="M23.01 20.9661C23.1688 20.1512 23.4862 18.4649 23.9962 17.8001C24.7095 16.8703 25.9406 17.6914 27.0533 17.7517C28.3029 17.8194 28.7403 17.2382 29.5496 17.1519C29.3023 17.5633 28.7839 17.8822 28.3774 18.1221C27.2653 18.7781 26.077 18.2628 24.9428 18.4231C24.2916 18.5152 24.1118 20.4156 23.985 20.9058C23.7544 20.9426 23.261 20.9535 23.01 20.9661Z" fill="#FEFEFE"/>
<path d="M22.8922 34.5742C23.6178 35.0806 25.1682 36.261 25.7699 36.8503C26.0739 37.0756 26.7533 37.7032 27.1209 37.6037C27.4186 37.5232 27.9909 36.0311 28.1228 35.7023C28.7263 36.7792 29.5337 39.5359 29.748 40.8071C29.8118 41.153 29.8684 41.5003 29.9175 41.8485C30.0151 42.3731 30.1176 42.8967 30.2248 43.4194C29.7889 43.7038 29.5912 43.8393 29.1085 44.0492C28.9109 43.6641 28.7396 43.19 28.4164 42.9031C28.0373 42.5665 27.7672 42.4562 27.4644 42.0231C27.1714 41.3991 26.8213 40.7085 26.4731 40.1123C25.1848 37.9069 24.7676 35.9724 21.8273 35.7671C21.8372 35.0262 22.1389 34.6338 22.8922 34.5742Z" fill="#432818"/>
<path d="M28.1228 35.7024C28.7264 36.7793 29.5337 39.536 29.748 40.8073C29.2319 40.7711 28.7192 40.6974 28.2139 40.5868C28.0741 40.445 27.8067 40.1736 27.6667 39.9487C27.0486 38.9554 26.3521 37.966 25.749 36.9651C25.756 36.9269 25.7629 36.8887 25.7699 36.8504C26.0739 37.0757 26.7533 37.7033 27.1209 37.6039C27.4187 37.5233 27.9909 36.0312 28.1228 35.7024Z" fill="#FEFEFE"/>
<path d="M27.4644 42.0232C28.3041 42.1063 29.0922 42.0035 29.9176 41.8486C30.0151 42.3732 30.1176 42.8969 30.2248 43.4195C29.7889 43.7039 29.5912 43.8394 29.1085 44.0493C28.9109 43.6643 28.7396 43.1901 28.4164 42.9032C28.0373 42.5666 27.7673 42.4563 27.4644 42.0232Z" fill="#FEFEFE"/>
<path d="M31.3825 21.6453C32.7708 21.5647 33.408 21.8511 34.6998 22.3558C35.0669 22.4991 36.25 22.696 36.3929 23.0538C36.1888 23.1854 33.5976 23.1701 33.0925 23.1873C29.9299 23.3102 26.7661 23.4025 23.6017 23.4642C21.8486 23.4824 20.2644 23.7555 18.419 23.6692C19.6843 23.1873 21.3281 22.3755 22.6055 22.0226C23.308 21.8285 25.6404 21.8302 26.4423 21.8159C28.0901 21.7957 29.7372 21.7388 31.3825 21.6453Z" fill="#99582A"/>
<path d="M24.5555 47.578C25.1002 46.5132 26.7648 44.2432 27.7374 43.6719C28.0027 43.9954 28.1365 44.1702 28.295 44.5644C27.7197 46.1706 27.0112 47.7366 26.4484 49.3483C26.3644 49.5887 26.2918 49.7997 26.1827 50.0309C25.9466 49.8068 25.8161 49.7079 25.5493 49.5177C25.3081 49.4033 24.354 48.7522 24.0497 48.5601C24.1861 48.1006 24.2499 47.9452 24.5555 47.578Z" fill="#FEFEFE"/>
<path d="M24.5555 47.578C24.9952 47.3953 25.8604 46.647 26.1157 46.719C26.3036 47.0985 25.6905 49.0085 25.5493 49.5178C25.3081 49.4034 24.354 48.7522 24.0497 48.5602C24.1861 48.1006 24.2499 47.9452 24.5555 47.578Z" fill="#432818"/>
<path d="M22.3937 31.4583C22.6151 31.696 23.7067 32.2565 24.0799 32.4772C25.2492 33.165 26.4103 33.8663 27.5631 34.5811C27.2941 35.0862 27.1099 35.6618 26.8374 36.1206C26.814 36.1487 26.7533 36.1793 26.7177 36.2009C26.4753 36.1307 24.8379 34.7194 24.4729 34.4613C23.6112 33.8518 22.7072 33.0933 21.8195 32.5034C22.0886 32.1286 22.2575 31.8988 22.3937 31.4583Z" fill="#FEFEFE"/>
<path d="M25.4333 24.4551L27.5875 24.4124C27.4183 24.7691 27.2151 25.1415 27.0313 25.4936C26.7876 25.267 26.5781 24.965 26.2791 24.799C25.4837 24.3595 24.5292 24.7303 24.1659 25.5372C23.895 26.1387 23.8946 26.7284 24.1102 27.3418C24.2072 27.622 24.2624 27.7247 24.4053 27.9857C24.1208 28.1274 23.916 28.3024 23.6306 28.4517C23.3851 28.277 23.2814 27.8863 23.1669 27.6138C22.7313 26.5786 22.4769 25.725 22.4095 24.6005C23.4458 24.5826 24.4033 24.5689 25.4333 24.4551Z" fill="#FEFEFE"/>
<path d="M47.805 39.0405C48.2757 39.0518 50.1932 40.2665 50.5047 40.6601C50.4016 40.9299 50.329 41.1386 50.1841 41.3899C50.1822 41.3882 50.0881 41.3051 50.0859 41.302C49.6795 40.7275 47.6529 39.8739 47.4951 39.3333C47.5942 39.1297 47.582 39.1844 47.805 39.0405Z" fill="#FEFEFE"/>
<path d="M47.2317 40.5635C47.7132 40.6006 49.5586 41.6915 49.6645 42.1008C49.6608 42.3183 49.577 42.4094 49.4606 42.5964C49.2681 42.6779 49.3637 42.667 49.1649 42.6423C48.7795 42.3116 48.4043 42.0164 47.9944 41.7181C47.4683 41.3352 46.9859 41.3148 47.2317 40.5635Z" fill="#FEFEFE"/>
<path d="M48.7039 37.7681C49.1616 37.8336 50.4513 38.6345 50.7947 39.0016C50.9174 39.1328 50.8986 39.4375 50.8026 39.5912C50.4243 39.6749 48.9793 38.505 48.4955 38.2979C48.5947 38.1124 48.6373 37.9654 48.7039 37.7681Z" fill="#FEFEFE"/>
<path d="M46.9892 42.2058C47.5127 42.2978 48.5589 42.9426 48.7152 43.482C48.696 43.6809 48.6871 43.6874 48.575 43.8594C48.0792 43.7899 47.1208 43.0375 46.8759 42.5723C46.8137 42.4544 46.9324 42.3043 46.9892 42.2058Z" fill="#FEFEFE"/>
<path d="M47.7678 37.4583C48.0927 37.5476 48.3647 37.6733 48.7039 37.768C48.6373 37.9654 48.5947 38.1124 48.4956 38.2979C48.2222 38.3617 47.7334 38.2394 47.3917 38.2087C47.6637 37.9756 47.4473 37.8288 47.7678 37.4583Z" fill="#454E4C"/>
<path d="M64.6644 32.5C64.9225 32.6002 65.1455 32.6792 65.3872 32.8171C66.0764 34.1392 67.1148 34.8236 65.7257 36.0115C66.0131 36.8088 67.0025 37.7278 67.7072 38.1902C68.1127 38.456 68.3479 37.8672 68.7088 37.6559C69.3815 37.377 69.7488 37.7134 70.2927 38.0795L70.48 38.1811C70.8686 38.4224 71.5051 38.7727 71.5307 39.2672C71.5812 40.2413 70.7728 41.1983 69.8164 41.3243C68.4842 41.4999 67.0286 40.7925 65.9902 40.0403C64.302 38.8171 62.9911 36.9824 62.6909 34.8997C62.7095 34.7584 62.7058 34.5642 62.7085 34.4172C62.7548 34.0911 62.7612 34.0103 62.89 33.7088C63.1774 33.3537 63.3929 33.0371 63.7783 32.7925C64.0811 32.6236 64.3243 32.5703 64.6644 32.5Z" fill="#432818" fill-opacity="0.05"/>
<path d="M64.4962 33.219C65.0157 33.2641 65.5032 34.3831 65.6863 34.8452C65.8619 35.2884 65.0103 35.6357 65.0433 35.9325C65.178 37.1457 66.7848 38.6606 67.9259 39.0217C68.3006 39.1231 68.7684 38.5229 69.0638 38.2845L69.109 38.2487C69.1974 38.2846 69.2841 38.3243 69.3688 38.3678C69.7434 38.5583 70.8425 39.0632 70.9665 39.4424C70.9383 39.6673 70.8116 39.8445 70.6967 40.0461C70.479 40.339 70.4183 40.4093 70.1458 40.6509C67.7673 41.1122 65.0801 38.8586 64.0337 36.8795C63.3035 35.498 62.7313 34.0444 64.4962 33.219Z" fill="#432818"/>
<path d="M63.3797 19.7355C63.6969 19.7176 64.0535 19.7248 64.3744 19.7358C66.6033 19.8127 68.8451 19.6963 71.0682 19.7657C71.2715 19.7721 71.7031 20.1364 71.866 20.2696C71.9842 20.8746 71.9868 25.4847 71.9017 26.2026C71.585 26.5106 71.404 26.6964 70.983 26.8379C68.5635 26.904 66.0568 26.7739 63.6293 26.8248C62.3078 26.8524 62.3615 25.6672 62.4025 24.7078C62.4669 23.4543 62.3636 22.1995 62.3988 20.9491C62.4195 20.2074 62.725 19.9247 63.3797 19.7355Z" fill="#432818" fill-opacity="0.05"/>
<path d="M65.6932 20.2698C66.3345 20.2744 70.3954 20.211 70.6216 20.448C70.5737 20.7268 68.431 22.7365 68.0611 23.0985C67.8157 23.3265 67.4719 23.5876 67.2053 23.802C65.9992 22.9265 64.6548 21.3817 63.4893 20.3841C64.2243 20.283 64.9518 20.2864 65.6932 20.2698Z" fill="#432818"/>
<path d="M68.3858 23.7429C68.8078 24.1071 70.3422 25.6954 70.7537 26.1415C70.2299 26.2218 69.5977 26.2195 69.0654 26.2257C67.4432 26.2491 65.227 26.2967 63.6389 26.1578C64.3414 25.3882 65.2217 24.4383 66.0259 23.7819C67.1659 24.6151 67.2835 24.6138 68.3858 23.7429Z" fill="#432818"/>
<path d="M71.147 21.0913C71.3615 21.3221 71.2593 25.1025 71.2178 25.586L70.1475 24.5548L68.8547 23.253C69.5184 22.5465 70.404 21.7233 71.147 21.0913Z" fill="#432818"/>
<path d="M63.1546 21.0217C63.8827 21.7565 64.7624 22.5508 65.5209 23.2941C65.1403 23.5657 64.6251 24.1493 64.2941 24.5038C63.929 24.9081 63.5383 25.2041 63.1338 25.6643C63.1594 24.3837 63.0029 22.2429 63.1546 21.0217Z" fill="#432818"/>
<path d="M75.8481 20.4234L85.6001 20.4283L89.116 20.4217C89.8303 20.4203 90.5424 20.4096 91.2588 20.4431C91.6377 20.442 92.1444 20.6209 92.1694 21.072C92.2019 21.6472 91.9304 21.8888 91.4147 21.9549C88.7775 22.0433 85.7178 21.9575 83.0454 21.9675C81.4536 21.9775 79.8617 21.9777 78.2698 21.968C77.7418 21.9655 75.7013 22.0455 75.3452 21.7869C75.1775 21.6666 75.0695 21.4815 75.0466 21.2773C74.9966 20.8083 75.4154 20.4813 75.8481 20.4234Z" fill="#454E4C"/>
<path d="M75.541 24.5606C76.2047 24.5004 77.0696 24.5263 77.7498 24.5278L81.0687 24.527L85.2164 24.5254C85.8098 24.5251 87.7971 24.4165 88.3033 24.7179C88.8983 25.072 88.4965 25.6606 88.1202 26.0871C87.6077 26.1604 86.6252 26.1337 86.0669 26.1328L82.5675 26.1292L78.1175 26.1331C77.3698 26.1336 76.1872 26.1669 75.482 26.0755C74.9705 25.5355 74.7964 24.9961 75.541 24.5606Z" fill="#454E4C"/>
<path d="M27.3898 59.2668C27.8338 59.3008 28.0409 59.4242 27.9905 59.9113C27.8815 60.9643 27.6236 61.9972 27.4352 63.0397C27.1926 64.3821 27.0208 65.7489 26.7011 67.0733C26.6434 67.3118 26.4883 67.4549 26.3109 67.607C25.6795 67.5232 25.623 67.1877 25.74 66.6366C25.9061 65.8533 26.062 64.9115 26.2374 64.1489C26.4383 63.275 26.7706 59.6654 27.3898 59.2668Z" fill="#4C4F50"/>
<path d="M47.5443 48.8439C48.0668 48.7392 48.6055 48.9228 48.9539 49.3245C49.3024 49.7261 49.4067 50.2834 49.2269 50.783C49.047 51.2827 48.6109 51.6471 48.0856 51.7369C47.2893 51.8729 46.5309 51.3469 46.3829 50.556C46.235 49.7652 46.7522 49.0025 47.5443 48.8439Z" fill="#454E4C"/>
<path d="M47.6179 49.4548C48.8119 49.4375 49.0915 50.4376 48.106 51.1321C47.6405 51.1662 47.3298 51.1315 47.1019 50.649C46.99 50.4155 46.9846 50.1454 47.0871 49.9076C47.2083 49.628 47.3485 49.5649 47.6179 49.4548Z" fill="#FEFEFE"/>
<path d="M33.8209 52.7591L39.1045 52.7359C40.0277 52.7349 41.2111 52.6918 42.1206 52.8342C42.2363 52.8522 42.2306 52.8999 42.2979 53.0185C42.2906 53.2337 42.3228 53.1394 42.2024 53.3137C42.0127 53.4107 41.6258 53.38 41.3939 53.3784L35.5103 53.3794C34.8689 53.3789 34.2248 53.38 33.5831 53.3773C33.3199 53.3763 33.1481 53.3667 33.0118 53.1346C33.0676 52.7106 33.5074 52.757 33.8209 52.7591Z" fill="#434547"/>
<path d="M66.6747 46.1253C66.9259 46.0938 67.1798 46.0859 67.4326 46.1016C69.5178 46.2441 70.7808 47.9567 70.6243 49.9762C70.5903 50.4268 70.4897 50.8699 70.3247 51.2909C69.9048 52.3596 68.3549 54.6694 67.4901 55.4002C67.3953 55.5195 67.374 55.5332 67.2607 55.6286C67.1745 55.6339 67.0888 55.6546 67.0206 55.5825C65.6416 54.1325 64.0354 52.1855 63.7352 50.1747C63.4356 48.169 64.6623 46.3829 66.6747 46.1253ZM67.4619 51.2158C68.38 51.0618 68.9963 50.1928 68.835 49.2798C68.6737 48.3669 67.7961 47.7595 66.8807 47.9268C65.9743 48.0924 65.3723 48.955 65.532 49.8586C65.6917 50.7621 66.5534 51.3682 67.4619 51.2158Z" fill="#432818" fill-opacity="0.05"/>
<path d="M66.7849 46.7035C66.8589 46.6925 66.9328 46.6851 67.0079 46.6815C67.8078 46.643 68.554 47.0028 69.1309 47.5363C71.279 49.5237 68.8983 52.9938 67.3426 54.6053L67.2122 54.7224L67.1031 54.7097C66.3634 54.247 64.7337 51.539 64.4739 50.668C63.8731 48.6527 64.8045 47.2891 66.7849 46.7035ZM67.4619 51.2158C68.38 51.0618 68.9963 50.1928 68.835 49.2798C68.6737 48.3669 67.7961 47.7595 66.8807 47.9268C65.9743 48.0924 65.3723 48.955 65.532 49.8586C65.6917 50.7621 66.5534 51.3682 67.4619 51.2158Z" fill="#432818"/>
<path d="M66.8806 47.9269C67.796 47.7596 68.6737 48.367 68.8349 49.2799C68.9962 50.1929 68.3799 51.0619 67.4618 51.2159C66.5533 51.3683 65.6916 50.7622 65.5319 49.8587C65.3723 48.9551 65.9742 48.0925 66.8806 47.9269ZM66.2116 49.5786C66.2116 49.8757 66.351 50.1558 66.5879 50.336C66.8253 50.5162 67.1334 50.5758 67.4213 50.4973C67.6124 50.4451 67.7827 50.3351 67.9083 50.1824C68.0542 50.0051 68.1308 49.7814 68.1244 49.5523C68.1164 49.2592 67.9733 48.9863 67.7364 48.8123C67.4996 48.6382 67.1951 48.5825 66.9115 48.6611C66.4979 48.7758 66.2116 49.1511 66.2116 49.5786Z" fill="#432818" fill-opacity="0.05"/>
<path d="M66.9115 48.6609C67.1952 48.5823 67.4996 48.638 67.7364 48.8121C67.9733 48.9861 68.1164 49.259 68.1244 49.5521C68.1308 49.7812 68.0542 50.0049 67.9083 50.1822C67.7827 50.3349 67.6124 50.4449 67.4214 50.4971C67.1334 50.5756 66.8253 50.516 66.5879 50.3358C66.351 50.1556 66.2116 49.8755 66.2116 49.5784C66.2116 49.1509 66.4979 48.7756 66.9115 48.6609Z" fill="#FEFDFD" fill-opacity="0.980392"/>
<path d="M88.5327 61.0323C90.3285 60.8574 91.9267 62.1643 92.1045 63.9519C92.2823 65.7395 90.9719 67.3331 89.1767 67.5122C87.3783 67.6919 85.7742 66.3844 85.5964 64.5932C85.4181 62.8024 86.7338 61.2067 88.5327 61.0323Z" fill="#432818"/>
<path d="M75.6608 48.2974C76.4389 48.2507 77.5613 48.2795 78.3554 48.2797L83.2152 48.2807L88.1164 48.2868C89.0883 48.2837 90.9207 48.1434 91.842 48.482C92.1028 48.578 92.1683 49.2715 91.966 49.5529C91.7984 49.6819 91.676 49.6762 91.4641 49.7048C87.3091 49.8254 83.0433 49.7392 78.877 49.7537C77.7913 49.6863 76.5022 49.8607 75.4479 49.6453C74.8113 49.5153 75.0551 48.592 75.6608 48.2974Z" fill="#4C4F50"/>
<path d="M75.9019 52.4334C79.6776 52.3596 83.5431 52.4608 87.3235 52.4489C87.8169 52.4473 88.4662 52.5161 88.4854 53.1321C88.5051 53.7675 88.0117 53.7755 87.5194 53.8083C83.7369 53.8905 79.9048 53.7744 76.1186 53.8248C75.3357 53.8354 74.837 53.5847 75.2356 52.7344C75.3373 52.5187 75.6938 52.4639 75.9019 52.4334Z" fill="#4C4F50"/>
<path d="M40.5191 57.0462C39.9639 55.8872 41.2494 53.0926 42.0534 55.504C42.2723 56.1606 42.2903 56.3514 42.1574 57.0271C42.1897 57.0134 42.2221 57.0006 42.2547 56.9879C42.4592 56.909 43.4688 56.5168 43.4892 56.9598C43.5537 58.3595 42.9565 59.0044 41.6337 59.3012C41.6191 59.5143 41.5942 59.7284 41.5721 59.9409C42.033 59.6303 42.769 59.0733 43.3473 59.3214C43.8794 59.827 43.19 60.9346 42.7998 61.3639C43.5307 61.3814 44.262 61.3882 44.9932 61.3835C44.7469 60.9266 43.9008 59.6134 44.5383 59.218C45.1795 59.1269 45.675 59.6256 46.1784 59.8307L46.2633 59.7761C46.2759 59.7024 46.3055 59.4968 46.2515 59.4581C45.6861 59.0495 45.1889 59.1974 44.7281 58.4893C44.4881 58.1284 44.2452 57.4432 44.3069 57.0128C44.3788 56.5104 45.4547 56.9105 45.692 56.9996L45.6882 56.9646C45.5543 55.6641 45.7659 55.381 46.5312 54.4382C47.3873 55.257 47.5636 55.8458 47.3618 57.0308C47.7669 56.8703 48.2632 56.645 48.6593 56.9153C49.0813 57.4972 48.3704 58.6409 47.8638 58.9933C47.6375 59.1512 46.9994 59.2546 46.8541 59.43C46.8413 59.5816 46.8113 59.7353 46.8685 59.8715C47.3284 59.8217 47.3262 59.1958 48.7471 59.2578C48.8362 60.3347 48.6505 60.5074 48.0952 61.3803C48.7831 61.3824 49.5885 61.3888 50.2629 61.3019C50.2138 61.2531 50.1658 61.2033 50.1188 61.1529C49.7874 60.8021 49.2482 59.7443 49.7478 59.3139C50.2322 58.8969 51.063 59.7406 51.4009 59.8015C51.443 59.7289 51.4305 59.3966 51.4073 59.3855C50.9097 59.1391 50.6678 59.2291 50.234 58.8099C49.8422 58.4321 49.2331 57.2317 49.7246 56.8051C50.1659 56.7266 50.4925 56.8644 50.917 56.9906C50.865 56.7738 50.786 56.5851 50.7933 56.3392C50.8048 55.6974 51.5654 53.6353 52.2911 54.9984C52.6657 55.7017 52.7535 56.2603 52.6135 57.0266C53.8507 56.5714 54.2307 56.7441 53.7836 58.1639C53.5787 58.8158 52.686 59.1205 52.1291 59.3908C52.0869 59.5858 52.0814 59.6113 52.0869 59.8084C52.4908 59.8328 53.0598 58.9695 53.789 59.3039C54.2781 59.7798 53.6336 60.9107 53.3504 61.3697C54.0503 61.3877 54.7502 61.3951 55.4495 61.392C55.1525 60.8726 54.6012 60.0172 54.822 59.413C55.3723 58.7501 56.4113 59.8874 56.7029 59.7687C56.7966 59.1481 55.9855 59.2323 55.6635 58.9658C54.714 58.1777 53.8853 56.1612 56.1207 56.9879C56.0185 56.2518 55.9982 55.7605 56.3703 55.1018C56.4389 55.2989 56.3884 55.2443 56.5454 55.3429C56.7146 55.3302 56.7332 55.3286 56.8918 55.274L56.919 55.3461C56.7487 55.8935 56.6944 56.0122 56.7247 56.5793C56.7689 56.7727 56.7971 57.0536 56.9706 57.1506C57.1255 57.0282 57.1505 56.6938 57.1755 56.4972C57.1713 55.9693 57.1617 55.8893 57.0132 55.3885C57.225 55.1145 57.068 54.983 57.299 54.7954C57.4906 55.0376 57.5225 55.0986 57.6551 55.3763C57.86 56.0891 57.9803 56.3154 57.7349 57.043C57.8461 57.0086 58.6434 56.7727 58.6732 56.7579C58.8648 56.7754 58.9723 56.7616 59.1059 56.8867C59.3337 57.3774 59.0048 58.1146 58.7531 58.554C58.2623 59.156 58.1735 58.97 57.8557 59.2138C57.6987 59.2493 57.5247 59.2821 57.3751 59.3373C57.3208 59.4952 57.3698 59.6187 57.407 59.7877L57.4725 59.8158C57.6487 59.6923 57.7855 59.5773 57.9489 59.4401C58.2448 59.3442 58.6599 59.1677 58.9564 59.2816C59.6972 59.5662 58.9069 60.8116 58.6184 61.1842L58.5646 61.2531L58.5199 61.3485C58.7413 61.4529 65.2414 61.5287 65.6534 61.4275C66.1042 61.4259 66.4655 61.4296 66.9163 61.3761C67.1282 61.4434 69.2369 61.3861 69.6126 61.384L75.0397 61.3845C75.2276 61.3851 76.5049 61.3792 76.6311 61.4174C76.3868 61.6124 74.401 61.5425 73.8438 61.6024C74.3649 61.6686 78.0926 61.6803 78.5561 61.587C78.3331 61.481 77.959 61.5117 77.8626 61.4492C78.0564 61.4439 78.2773 61.4455 78.4662 61.4158C79.2278 61.3957 80.1156 61.295 80.0368 62.3162C79.8846 62.409 79.5184 62.6427 79.3715 62.6565C78.4162 62.7471 77.3613 62.6824 76.3985 62.6835L69.8319 62.7163C69.4886 62.7185 68.2118 62.6591 67.9792 62.7402C67.1899 62.6824 66.9009 62.8133 66.2787 62.8356C66.0062 62.8451 64.4612 62.348 64.0801 62.3841C63.9667 62.3947 63.2477 62.6575 63.1216 62.7169L63.22 62.8017C63.1029 62.8573 60.6302 62.7932 60.263 62.8181C60.8319 63.0253 62.3344 62.8976 63.0439 62.9903L59.9585 63.0115C59.3342 62.9713 58.4688 62.9882 57.8227 62.984L53.4015 62.9744L39.0811 62.9691C37.8861 62.9644 36.691 62.967 35.496 62.976C34.7064 62.9797 33.8268 63.0068 33.0474 62.9358C31.9938 61.392 33.5 61.3681 34.5829 61.3533C34.3861 61.0507 34.2158 60.765 33.9642 60.5037C33.9169 60.1608 33.8115 59.7098 33.9611 59.3956C34.0056 59.2996 34.0879 59.2265 34.1884 59.1936C34.6713 59.0357 35.3528 59.669 35.728 59.8323L35.792 59.7888C35.8627 59.1041 34.4349 59.1332 34.0756 58.1867C33.5729 56.8613 33.8383 56.476 35.2488 57.0446C35.2376 56.8597 35.2286 56.6747 35.2218 56.4892C35.1888 55.5178 35.4638 55.124 36.1015 54.4446C36.9652 55.2554 37.1617 55.8209 36.9067 56.9948C37.2948 56.9021 37.933 56.68 38.2729 56.8671C38.5727 57.3271 37.9609 58.5778 37.5729 58.9059C37.2855 59.1481 36.719 59.1581 36.404 59.359C36.3534 59.3908 36.3704 59.7072 36.3693 59.7798C36.9921 60.0342 38.6134 57.7256 38.2236 60.5387C37.9332 60.8588 37.8699 60.9812 37.6544 61.3607C38.3679 61.3739 39.0817 61.3708 39.7951 61.3511C39.1779 60.7417 39.098 60.0702 39.1719 59.235C40.0477 59.235 40.2509 59.3595 40.9624 59.8837L40.9294 59.2943C40.4043 59.2 39.7334 58.9493 39.4994 58.4724C38.7109 56.8644 38.9516 56.4749 40.5191 57.0462ZM57.7519 57.7458C57.6056 58.0616 57.4528 58.3786 57.3288 58.7034C57.6795 58.5444 57.918 58.431 58.2496 58.2386C58.3651 58.0033 58.4853 57.7452 58.6109 57.5174C58.7738 57.3382 58.9446 57.3006 58.8616 57.0542C58.6839 56.9704 58.7743 56.9831 58.5806 57.0134C58.5146 57.175 58.4726 57.1708 58.5652 57.3064L58.5418 57.4029C58.2879 57.5121 57.9989 57.6286 57.7519 57.7458ZM57.8099 60.7009L57.8158 60.8339C58.2033 60.9145 58.5125 60.3315 58.5801 60.0162C58.5567 59.9388 58.5678 59.9351 58.5199 59.88C58.1468 60.084 57.7173 60.3119 57.6034 60.7613L57.6604 60.8138C57.7008 60.7841 57.7759 60.7321 57.8099 60.7009Z" fill="#4C4F50" fill-opacity="0.968627"/>
<path d="M51.6944 55.3054C51.8128 55.378 52.0016 55.7713 52.0284 55.908C52.1389 56.4703 52.0155 56.749 51.7554 57.2075C51.1707 56.7003 51.452 55.8947 51.6944 55.3054Z" fill="#FEFEFE"/>
<path d="M41.2618 55.3467C41.8583 55.7616 41.5683 56.6843 41.3236 57.2074C40.7518 56.8205 41.0144 55.8486 41.2618 55.3467Z" fill="#FEFEFE"/>
<path d="M55.3898 59.906C55.9966 59.9463 56.6576 60.6167 56.6363 61.2224C56.3074 61.1732 55.8326 60.7614 55.557 60.5467C55.4979 60.3591 55.4393 60.1021 55.3898 59.906Z" fill="#FEFEFE"/>
<path d="M36.0922 55.3135C36.5888 55.845 36.3894 56.6352 36.1312 57.2124C35.6032 56.8589 35.8675 55.7931 36.0922 55.3135Z" fill="#FEFEFE"/>
<path d="M44.9286 59.925C45.5657 60.0215 46.2137 60.517 46.1945 61.1975C45.6154 61.2426 45.0718 60.4153 44.9286 59.925Z" fill="#FEFEFE"/>
<path d="M47.9635 59.9395L48.087 59.966C48.3147 60.4419 47.3506 61.0301 47.0169 61.2156C46.9307 61.1955 46.972 61.2135 46.9044 61.1345C46.9587 60.6427 47.473 60.0778 47.9635 59.9395Z" fill="#FEFEFE"/>
<path d="M53.116 59.9229L53.2749 59.9451L53.3244 60.0405C53.2536 60.5673 52.7399 60.9727 52.2812 61.1757C52.1867 61.2276 52.2359 61.225 52.1319 61.1964C52.1786 60.5752 52.6177 60.2175 53.116 59.9229Z" fill="#FEFEFE"/>
<path d="M42.7256 59.8789C43.0738 60.4216 42.1473 61.0279 41.7479 61.243L41.7145 61.1948C41.6269 60.5467 42.2042 60.1243 42.7256 59.8789Z" fill="#FEFEFE"/>
<path d="M37.337 57.5111C37.5305 57.4905 37.4805 57.4693 37.637 57.5398C37.6813 57.721 37.5492 57.9611 37.4725 58.1519C37.21 58.3607 37.0554 58.4381 36.7573 58.5981C36.5825 58.6214 36.6598 58.6368 36.514 58.5764C36.5218 58.3782 36.7384 57.9992 36.8369 57.7809C36.9857 57.6754 37.1715 57.5928 37.337 57.5111Z" fill="#FEFEFE"/>
<path d="M34.5275 59.9033C35.2094 59.9659 35.6396 60.6061 35.6923 61.2441C35.0458 61.0973 34.6527 60.5133 34.5275 59.9033Z" fill="#FEFEFE"/>
<path d="M37.5079 59.9412C37.6476 59.9555 37.5909 59.9258 37.6815 60.0366C37.6402 60.5612 36.9985 60.9587 36.5982 61.2168C36.4968 61.1861 36.5427 61.2126 36.4758 61.1092C36.545 60.601 37.0176 60.097 37.5079 59.9412Z" fill="#FEFEFE"/>
<path d="M46.4872 55.3535C46.7395 55.548 46.8013 56.0679 46.8701 56.3981L46.5624 57.1549L46.5303 57.157C46.0907 56.909 46.3389 55.7388 46.4872 55.3535Z" fill="#FEFEFE"/>
<path d="M42.7244 57.4348C42.8084 57.4544 42.7799 57.4481 42.8544 57.5042C42.8209 58.0114 42.3237 58.4762 41.8454 58.6124L41.7264 58.6103C41.6595 58.4126 41.8245 58.0989 41.9101 57.8837C42.1781 57.7279 42.4496 57.5784 42.7244 57.4348Z" fill="#FEFEFE"/>
<path d="M53.1903 57.4358C53.2935 57.4734 53.2477 57.4443 53.3126 57.5476C53.2312 58.0914 52.7873 58.4666 52.2897 58.6351L52.2056 58.6314C52.1335 58.456 52.2955 58.112 52.3684 57.909C52.6743 57.7124 52.865 57.5932 53.1903 57.4358Z" fill="#FEFEFE"/>
<path d="M50.2299 59.9124C51.0001 60.1296 51.2564 60.4847 51.4143 61.2224C50.6382 60.9204 50.3955 60.7587 50.2299 59.9124Z" fill="#FEFEFE"/>
<path d="M44.916 57.4766C45.5577 57.5158 46.0972 57.9965 46.2282 58.616C45.4896 58.6732 45.1635 58.0484 44.916 57.4766Z" fill="#FEFEFE"/>
<path d="M55.4415 57.4661C56.0531 57.5493 56.497 58.0448 56.6715 58.6134C56.1212 58.6394 55.3032 58.0326 55.4415 57.4661Z" fill="#E9E9E9"/>
<path d="M48.0553 57.4678L48.0914 57.5171C48.0837 57.7338 47.957 57.9765 47.8691 58.1843C47.5643 58.409 47.3739 58.5261 47.0163 58.6406L46.9705 58.5219C47.1431 57.8827 47.4038 57.5913 48.0553 57.4678Z" fill="#FEFEFE"/>
<path d="M39.7729 59.9268C40.4354 60.0116 40.7968 60.5844 40.932 61.1817C40.1829 60.9787 39.8939 60.673 39.7729 59.9268Z" fill="#FEFEFE"/>
<path d="M50.2275 57.4363C50.4325 57.4792 50.8771 57.7256 51.1336 57.8316C51.2191 58.1104 51.2813 58.359 51.3494 58.6425C50.5298 58.3828 50.4213 58.2916 50.2275 57.4363Z" fill="#FEFEFE"/>
<path d="M39.7717 57.4421C40.0792 57.5036 40.3892 57.7135 40.6645 57.8762C40.7443 58.1316 40.8157 58.3616 40.88 58.6218C40.0723 58.4411 39.9422 58.2079 39.7717 57.4421Z" fill="#FEFEFE"/>
<path d="M34.5312 57.4353C35.1833 57.5551 35.5844 57.9759 35.6582 58.633C35.2867 58.5657 35.0966 58.42 34.7938 58.2112C34.6908 57.9367 34.6114 57.7167 34.5312 57.4353Z" fill="#FEFEFE"/>
<path d="M58.5418 57.403L58.5652 57.3065C58.4726 57.1709 58.5146 57.1751 58.5806 57.0135C58.7743 56.9833 58.6839 56.9705 58.8616 57.0543C58.9446 57.3007 58.7738 57.3383 58.6109 57.5175L58.5418 57.403Z" fill="#434547" fill-opacity="0.901961"/>
<path d="M64.822 65.5901L68.2192 65.5949L71.5749 65.615C72.2104 65.6198 73.0007 65.6468 73.6234 65.607L77.0696 65.6293C77.2756 65.6298 78.323 65.6256 78.4401 65.6494C79.0101 65.9711 79.2086 65.6208 80.0043 66.2504C79.8223 66.7597 79.8201 66.7889 79.3528 67.0443C78.6253 67.1302 77.1021 67.0952 76.2979 67.0978C75.4745 67.056 72.9385 67.0857 72.1433 67.1519C71.8234 67.1493 70.998 67.1355 70.7164 67.1927C69.2528 67.1837 67.7663 67.2054 66.3005 67.2139C63.4978 67.1614 60.5732 67.2028 57.7631 67.2023L41.9849 67.1991C40.9307 67.1991 34.3741 67.3332 33.817 67.1137C33.6177 67.0353 33.4592 66.8869 33.3766 66.6892C33.2964 66.4937 33.2986 66.2737 33.3826 66.0798C33.4966 65.8159 33.6371 65.703 33.8922 65.5975L64.822 65.5901Z" fill="#4C4F50" fill-opacity="0.968627"/>
<path d="M51.2379 42.6494L51.2567 42.8536L51.3623 42.9134L51.2664 42.8792L51.3627 42.9542L51.3677 42.995L51.3868 42.9427C51.4533 42.7657 51.4519 42.7331 51.5923 42.6228C51.7572 42.6159 51.6893 42.5913 51.8094 42.6741C51.883 42.8375 51.9794 43.1036 52.1066 43.2115C52.1394 43.224 52.1722 43.2364 52.2051 43.2489C52.2409 43.5232 52.2767 43.8822 52.3482 44.1413C52.4835 44.798 52.6393 45.4298 52.7848 46.0815C53.1533 46.105 53.6218 46.1479 53.9837 46.141L54.0918 46.1574L54.1684 46.3045C54.4792 46.3442 54.6341 46.401 54.9071 46.509C55.2887 46.6601 56.7226 46.6684 57.0275 46.471L57.0712 46.4633C58.0052 47.117 57.5443 47.7797 57.6385 48.6769C57.6162 48.9292 57.5917 49.1562 57.5959 49.4101C58.1276 50.2073 58.7067 51.265 58.0297 52.1841C57.9642 52.021 57.9594 51.9803 57.8706 51.8176C57.7678 51.7659 57.7439 51.7426 57.6295 51.7379C57.8642 50.591 57.6422 50.6198 56.9871 49.8103C56.4772 49.6485 56.0381 49.5611 55.5272 49.8411C55.1663 50.042 54.9034 50.38 54.7975 50.7777C54.6948 51.1672 54.7613 51.5745 54.9763 51.9108C55.368 52.5252 55.8321 52.6651 56.5224 52.6847C56.3197 52.7692 56.2286 52.7663 56.0126 52.777L55.9998 52.8152C56.1866 52.9099 56.3197 52.9027 56.5288 52.9186C56.9493 52.7122 57.4198 52.4083 57.6657 51.9978C57.7689 52.2356 57.4373 52.6072 57.6449 52.9055C58.0494 52.9443 58.7871 52.7963 59.0681 52.9639L59.0777 53.0784C58.7557 53.1939 58.1564 52.7745 57.7859 52.9743L57.7721 53.0413C58.133 53.0943 58.3895 52.9905 58.7237 53.0885L58.7855 53.1727C58.5396 53.3964 56.9099 53.107 56.6252 53.3471C56.8114 53.469 57.3878 53.2326 57.094 53.973C57.019 53.7653 57.0589 53.6736 57.002 53.496C56.6406 53.2941 47.315 53.416 46.3287 53.3964C45.8106 53.3858 44.5219 53.4165 43.9446 53.3715C43.7322 53.3545 43.6628 53.301 43.5402 53.1473C43.5552 52.5486 45.3836 52.7341 45.9089 52.7171C45.5756 52.2999 45.4973 52.1778 45.0982 51.7918C45.2335 51.6079 45.4408 51.3893 45.5979 51.214C46.1921 52.5623 47.3942 52.8425 48.7288 52.5983C49.1189 52.2677 49.4688 52.1169 49.8019 51.6913C50.673 50.5782 50.3597 49.1048 49.2352 48.2965C48.5393 47.7962 47.86 47.7874 47.0307 47.9329C47.0611 47.8129 47.1506 47.4654 47.2324 47.3913C47.8838 46.8014 49.2288 47.3949 49.7443 47.8283C50.594 48.5426 50.8552 49.3278 50.9533 50.3473C52.0458 50.3823 53.1391 50.3864 54.2317 50.3597C54.88 49.1309 55.698 48.8124 57.0366 49.0748L57.0499 48.1507C56.7279 48.1676 56.1967 48.1938 55.8891 48.1181C55.7576 48.0858 55.7225 47.9675 55.6624 47.8549C55.7049 47.323 56.7076 47.6771 57.027 47.365C57.0036 47.1117 56.7646 46.9655 56.5331 46.9452C55.2882 46.8361 54.0242 46.7376 52.7819 46.6037C52.7654 47.4449 52.7933 48.4855 52.7204 49.2992C52.3011 49.34 51.7998 49.3255 51.3726 49.3246C50.7124 47.3073 49.6928 46.984 47.8171 46.4442C47.8949 46.2602 47.9343 46.134 48.0638 45.98C48.2629 45.8752 48.4907 45.934 48.7284 45.9599C48.7375 45.8871 48.7486 45.8146 48.7618 45.7424C48.8022 45.5304 48.8468 45.4643 49.0199 45.3436C49.4549 45.2941 49.4295 45.6641 49.4481 45.985C50.2636 46.0088 51.2531 45.9697 52.089 45.9611C51.9287 45.0555 51.7144 44.1606 51.5319 43.2587C51.4146 43.1856 51.3273 43.1267 51.2156 43.0456C51.1509 42.8482 51.1798 42.8875 51.2379 42.6494Z" fill="#454E4C" fill-opacity="0.984314"/>
<path d="M50.2108 46.5916C50.8282 46.5713 51.5252 46.5879 52.1486 46.5892C52.1649 47.2172 52.1724 48.069 52.1321 48.6823C52.0434 48.681 51.9331 48.6476 51.8857 48.5723C51.3762 47.7617 50.8908 47.2537 50.2108 46.5916Z" fill="#FEFEFE"/>
<path d="M58.9622 53.5406L59.1565 53.5618C59.2102 53.7361 59.247 53.8967 59.289 54.0737L59.3305 54.0949C59.3343 53.9635 59.322 53.8336 59.3795 53.7197C59.5152 53.6598 59.6147 53.7091 59.7643 53.7488C60.0027 53.6222 60.04 52.9525 59.9596 52.7781L59.8489 52.881C59.8335 52.6921 59.8367 52.5286 59.8377 52.3402C60.0437 52.3601 60.0208 52.5471 60.1943 52.4906C60.1656 52.2103 60.0102 52.4296 59.8473 51.9486L59.9213 51.8641L59.8441 51.825L59.8383 51.8924L59.892 51.8348C60.3955 52.3573 61.2359 54.1362 61.1183 54.8634C61.0022 54.8008 60.4509 53.1044 60.3907 52.8612L60.2784 52.8477C60.0639 53.2533 60.75 53.9264 60.6382 54.2862L60.6041 54.2587C60.4642 54.1479 60.4354 54.1288 60.2726 54.061L60.1709 54.0901L60.1012 54.2523C60.2609 54.3843 60.3801 54.5009 60.5685 54.5867L60.6047 54.5496L60.5648 54.4569L60.6233 54.4473C60.6781 54.5618 60.7308 54.6768 60.7814 54.7929C60.8649 54.989 60.8346 55.2391 60.8224 55.4543L60.7814 55.4628C60.7564 55.317 60.734 55.1713 60.7143 55.025L60.5967 55.0626C60.5243 54.8093 60.6015 54.8422 60.4349 54.7362C60.2507 54.7669 60.3231 54.7256 60.2002 54.8448C60.2183 54.9953 60.2577 55.0155 60.2641 55.1941C60.1315 55.2163 60.1033 55.1951 59.9751 55.1564C60.1049 55.3186 60.0395 55.2794 60.2241 55.3478C60.3992 55.3022 60.4173 55.2799 60.5696 55.1745C60.6973 55.3038 60.6324 55.4103 60.6765 55.5656C60.6914 55.6191 60.908 55.6005 60.9293 55.7643L60.8617 55.786C60.7888 55.8104 60.7585 55.8221 60.6904 55.8528L60.7047 55.9164L60.6803 55.8846C60.7941 55.9307 60.8969 55.8931 61.0129 55.8698C61.3674 56.0902 61.213 57.6536 61.6425 58.0267C61.6729 58.0532 61.6766 59.2706 61.7569 59.5626C61.683 59.8451 61.4222 59.7529 61.5185 60.101C61.807 60.3401 63.2419 59.9664 63.5979 60.2669C63.7597 60.4037 63.7629 60.701 63.8986 60.8557C63.6043 61.1223 61.6659 60.9167 61.3546 61.0333C62.3254 61.3475 62.9752 61.0698 63.9667 61.0672C64.1461 61.0666 64.3686 61.2172 64.6448 61.2134C64.4319 61.4228 63.9817 61.1567 63.6809 61.401C63.219 61.4063 60.2523 61.3772 60.0038 61.2405L60.0182 61.1016C60.1369 60.9516 60.28 60.931 60.4684 60.8684L60.494 60.808C60.2268 60.596 59.9154 60.7158 59.5982 60.6745L59.6328 60.5224C59.693 60.3962 59.8276 59.9325 59.8771 59.7746C59.7813 59.5446 59.7132 59.2907 59.4593 59.2356L59.5259 59.2112L59.4897 59.2054C59.413 59.3066 59.4391 59.3368 59.4301 59.49L59.3992 59.4683L59.3853 59.252L59.5163 59.1344C59.3162 58.9934 58.6823 59.145 58.4438 59.1953L58.414 59.1254C58.5359 58.9335 58.6455 58.8196 58.7951 58.6532C58.9819 58.6102 59.0064 58.659 59.2097 58.7364C59.248 58.7136 59.3582 58.6463 59.379 58.606C60.1384 57.1189 60.5153 56.3966 58.3752 56.7373C58.2496 56.7887 58.1256 56.8083 57.9925 56.8364L57.9228 56.7871C57.9845 56.5911 57.9531 56.6292 58.1634 56.5063C58.2293 56.4252 58.3805 55.9509 58.4859 55.7526C58.4939 55.7309 58.5146 55.6694 58.5279 55.661C58.744 55.5279 58.9872 54.601 58.9628 54.3726C58.9212 53.9852 58.8446 54.0414 58.9622 53.5406Z" fill="#9DA9A3" fill-opacity="0.01"/>
<path d="M82.0763 38.412C82.6857 38.4174 83.2956 38.4167 83.905 38.4101C84.2771 38.4202 84.8386 38.4502 85.1925 38.3989C85.4352 38.4886 85.7056 38.5782 85.8152 38.837C85.8998 39.0361 85.9254 39.3466 85.8338 39.5481C85.763 39.7038 85.6204 39.7977 85.4602 39.8458C84.8492 40.0291 75.7343 40.0078 75.4059 39.8282C75.2702 39.7539 75.176 39.5717 75.1451 39.4261C75.0887 39.1559 75.1494 38.863 75.258 38.6145C75.4112 38.482 75.5177 38.4604 75.7088 38.3933C76.0771 38.4374 76.7264 38.4166 77.1165 38.4155C78.7701 38.4279 80.4232 38.4267 82.0763 38.412Z" fill="#454E4C"/>
<path d="M56.159 50.3005C56.5949 50.351 56.9068 50.4604 57.0425 50.9323C57.1122 51.1775 57.0728 51.4407 56.9344 51.655C56.7588 51.9288 56.5821 51.942 56.283 52.0007C55.1185 51.8654 55.0456 50.6314 56.159 50.3005Z" fill="#454E4C" fill-opacity="0.976471"/>
<path d="M57.6295 51.738C57.7439 51.7427 57.7679 51.7661 57.8706 51.8177C57.9595 51.9804 57.9643 52.0211 58.0297 52.1842C57.9158 52.418 57.8365 52.564 57.6992 52.7849L58.3379 52.7719C58.58 52.7726 58.8329 52.7503 59.0521 52.8363C59.2123 53.0038 59.2129 53.0653 59.1655 53.2884L59.0841 53.3176C57.0989 53.3377 57.9627 54.4268 57.2995 54.5603C57.1963 54.501 57.1398 54.4702 57.0286 54.4199L56.9956 54.4745C57.0866 54.5582 57.2649 54.6939 57.299 54.7956C57.068 54.9832 57.225 55.1147 57.0132 55.3887L56.919 55.3463L56.8918 55.2742C56.8258 54.8905 56.7183 55.2488 56.7034 54.7331C56.7444 54.5927 57.018 54.1077 57.0941 53.9731C57.3879 53.2328 56.8115 53.4691 56.6252 53.3472C56.9099 53.1072 58.5396 53.3965 58.7855 53.1729L58.7237 53.0886C58.3895 52.9907 58.133 53.0944 57.7721 53.0414L57.786 52.9744C58.1564 52.7747 58.7557 53.1941 59.0777 53.0785L59.0681 52.9641C58.7871 52.7964 58.0494 52.9444 57.6449 52.9057C57.4374 52.6073 57.7689 52.2357 57.6657 51.9979C57.4198 52.4084 56.9493 52.7123 56.5288 52.9187C56.3197 52.9028 56.1866 52.9101 55.9998 52.8154L56.0126 52.7771C56.2287 52.7664 56.3197 52.7693 56.5225 52.6848C56.9003 52.5599 57.4182 52.0662 57.6295 51.738Z" fill="#434547" fill-opacity="0.878431"/>
<path d="M67.9792 62.7401C68.2118 62.6591 69.4886 62.7184 69.8319 62.7163L76.3985 62.6834C77.3613 62.6824 78.4162 62.747 79.3715 62.6564C79.5184 62.6426 79.8846 62.4089 80.0368 62.3162C79.9772 62.4598 79.9053 62.684 79.7552 62.712C77.6173 63.1154 74.2446 62.738 72.1875 62.9124C71.6861 62.9087 71.1848 62.9097 70.6829 62.915C69.8984 62.8355 68.6445 63.0274 67.9792 62.7401Z" fill="#202428" fill-opacity="0.988235"/>
<path d="M63.0439 62.9905C62.3344 62.8977 60.832 63.0255 60.263 62.8182C60.6302 62.7933 63.103 62.8575 63.22 62.8018L63.1216 62.717C63.2477 62.6577 63.9668 62.3948 64.0801 62.3842C64.4612 62.3482 66.0063 62.8453 66.2788 62.8357C66.9009 62.8135 67.1899 62.6826 67.9792 62.7403C68.6445 63.0276 69.8984 62.8357 70.6829 62.9152C70.2593 62.9486 69.8888 62.9449 69.4657 62.9433L68.9644 62.9454L68.6759 62.9555C68.4061 62.9703 67.9334 62.9809 67.6812 63.0154C66.1356 62.9857 64.5895 62.9772 63.0439 62.9905Z" fill="#434547" fill-opacity="0.701961"/>
<path d="M57.299 54.7955C57.2649 54.6937 57.0866 54.558 56.9956 54.4743L57.0286 54.4197C57.1398 54.4701 57.1963 54.5008 57.2995 54.5602C57.9627 54.4266 57.0989 53.3375 59.0841 53.3174C58.8669 53.3889 58.7908 53.3688 58.6987 53.585C58.4683 54.1293 58.646 55.2263 58.1527 55.6662L58.0739 55.6577C57.9605 55.495 57.9254 55.433 57.7801 55.3026C57.696 55.3355 57.7056 55.317 57.655 55.3763C57.5225 55.0986 57.4906 55.0377 57.299 54.7955Z" fill="#BBBFBD" fill-opacity="0.207843"/>
<path d="M58.5647 61.2533C58.6525 61.2835 58.7435 61.2856 58.8377 61.2957C59.0415 61.194 59.0777 60.7891 59.2938 60.4552C59.4184 60.3767 59.4764 60.3614 59.6206 60.3328L59.6328 60.5225L59.5982 60.6746C59.9155 60.7159 60.2268 60.5962 60.494 60.8081L60.4684 60.8686C60.28 60.9311 60.1369 60.9518 60.0182 61.1017L60.0038 61.2406C60.2524 61.3773 63.219 61.4065 63.681 61.4012L64.6038 61.4128C64.9163 61.4107 65.3522 61.3953 65.6534 61.4277C65.2414 61.5289 58.7414 61.4531 58.52 61.3487L58.5647 61.2533Z" fill="#B9BAB9" fill-opacity="0.184314"/>
<path d="M59.0841 53.3175L59.1656 53.2883L58.9622 53.5406C58.8446 54.0414 58.9213 53.9852 58.9628 54.3726C58.9873 54.6011 58.744 55.528 58.5279 55.661C58.5146 55.6695 58.4939 55.731 58.4859 55.7527C58.3699 55.812 58.2586 55.8698 58.1394 55.9249C58.0617 56.1417 58.1378 56.2535 58.1634 56.5063C57.9531 56.6293 57.9845 56.5911 57.9228 56.7872L57.9925 56.8365C58.1256 56.8084 58.2496 56.7888 58.3752 56.7374L58.6732 56.758C58.6434 56.7729 57.8462 57.0087 57.7349 57.0432C57.9803 56.3155 57.86 56.0892 57.6551 55.3764C57.7057 55.3171 57.6961 55.3356 57.7802 55.3027C57.9255 55.4331 57.9606 55.4951 58.074 55.6578L58.1527 55.6663C58.6461 55.2264 58.4683 54.1294 58.6988 53.5851C58.7909 53.3689 58.867 53.389 59.0841 53.3175Z" fill="#979999" fill-opacity="0.0745098"/>
<path d="M58.753 58.554L58.795 58.6531C58.6455 58.8195 58.5358 58.9334 58.414 59.1253L58.4438 59.1952C58.6822 59.1449 59.3161 58.9933 59.5162 59.1343L59.3853 59.2519L59.3991 59.4682L59.43 59.4899C59.439 59.3367 59.4129 59.3065 59.4896 59.2053L59.5258 59.2111L59.4593 59.2355C59.7131 59.2906 59.7812 59.5445 59.877 59.7745C59.8276 59.9324 59.6929 60.3961 59.6328 60.5223L59.6205 60.3325C59.4763 60.3611 59.4183 60.3765 59.2937 60.455C59.0776 60.7888 59.0415 61.1937 58.8376 61.2955C58.7434 61.2854 58.6524 61.2833 58.5646 61.2531L58.6183 61.1842C58.9068 60.8116 59.6972 59.5662 58.9563 59.2816C58.6598 59.1677 58.2447 59.3441 57.9488 59.4401C57.9222 59.3399 57.8998 59.306 57.8557 59.2138C58.1734 58.97 58.2623 59.156 58.753 58.554Z" fill="#979999" fill-opacity="0.0666667"/>
<path d="M54.2264 46.1538L54.3201 46.2105C54.3488 46.1995 54.3781 46.1886 54.4068 46.1776C54.4489 45.8644 54.4505 45.3182 54.5814 45.0459C54.591 45.2833 54.641 45.4352 54.7006 45.6627L54.716 46.1328C55.3042 46.1847 56.5389 46.2385 57.0275 46.471C56.7225 46.6685 55.2887 46.6601 54.9071 46.509C54.6341 46.401 54.4792 46.3443 54.1684 46.3045L54.0917 46.1575L54.2264 46.1538Z" fill="#4C4F50" fill-opacity="0.972549"/>
<path d="M61.7506 65.5466C62.4419 65.6049 63.3121 65.5725 64.0088 65.5216C64.1488 65.511 64.5746 65.1793 64.8513 65.3817L64.7518 65.4437C64.8651 65.5042 65.0754 65.51 65.2106 65.5238C65.0796 65.5492 64.9556 65.5762 64.822 65.59L33.8922 65.5974C34.218 65.5344 35.7819 65.5609 36.1969 65.5619L40.918 65.5683L54.4021 65.5678C56.7907 65.5678 59.3736 65.6139 61.7506 65.5466Z" fill="#E9E9E9" fill-opacity="0.662745"/>
<path d="M54.286 44.6782C54.327 44.4166 54.3834 43.6326 54.4957 43.5081C54.5782 43.6005 54.6629 43.6914 54.7486 43.7806C54.5868 44.2898 54.6724 45.1121 54.7007 45.6628C54.641 45.4353 54.591 45.2834 54.5814 45.046C54.4505 45.3183 54.4489 45.8645 54.4069 46.1777C54.3781 46.1886 54.3489 46.1996 54.3201 46.2105L54.2264 46.1539C54.2967 45.7764 54.285 45.0872 54.286 44.6782Z" fill="#434547" fill-opacity="0.776471"/>
<path d="M76.6311 61.4175C77.0217 61.3941 78.0984 61.3576 78.4662 61.4159C78.2773 61.4455 78.0564 61.444 77.8627 61.4493C77.959 61.5118 78.3331 61.481 78.5561 61.587C78.0926 61.6803 74.3649 61.6687 73.8438 61.6024C74.4011 61.5425 76.3868 61.6125 76.6311 61.4175Z" fill="#454E4C" fill-opacity="0.952941"/>
<path d="M64.8512 65.3816C65.7486 65.5369 66.9094 65.2406 67.589 65.3959C67.8402 65.4664 68.0276 65.4595 68.2873 65.4653L67.994 65.5268L68.2192 65.5946L64.822 65.5899C64.9555 65.5761 65.0796 65.5491 65.2105 65.5236C65.0753 65.5098 64.8651 65.504 64.7517 65.4436L64.8512 65.3816Z" fill="#FEFEFE" fill-opacity="0.513725"/>
<path d="M54.4133 43.2955C54.7364 43.0646 54.8103 43.0277 55.1877 43.012L55.2558 43.0401L55.2489 43.2605C55.1297 43.3598 54.7465 43.7818 54.7486 43.7805C54.6629 43.6914 54.5783 43.6005 54.4958 43.508C54.3835 43.6326 54.3271 44.4165 54.2861 44.6782L54.2185 43.755C54.2781 43.5288 54.2909 43.4944 54.4133 43.2955Z" fill="#4C4F50" fill-opacity="0.643137"/>
<path d="M68.629 73.2791L68.2687 73.2155L68.299 73.1424C68.2341 73.1519 68.1021 73.1864 68.0643 73.1594C68.3038 73.1323 68.6998 73.0698 68.8169 72.8355C68.7791 72.6946 68.7009 72.4137 68.7631 72.2881C69.0899 72.3988 69.1394 72.6538 69.1346 72.977L69.0266 73.0343L69.017 73.0703L69.322 73.0989C69.3928 73.2934 70.0474 73.2648 70.2539 73.2717L68.629 73.2791Z" fill="#FEFEFE" fill-opacity="0.541176"/>
<path d="M56.9189 55.3462L57.0131 55.3886C57.1616 55.8894 57.1712 55.9694 57.1755 56.4973C56.9333 56.7273 57.1009 56.4872 56.8535 56.7522C56.7742 56.6738 56.7747 56.678 56.7247 56.5794C56.6943 56.0124 56.7486 55.8936 56.9189 55.3462Z" fill="#FEFEFE" fill-opacity="0.192157"/>
<path d="M70.3263 73.018L70.4966 72.9819C70.6477 73.0816 70.6882 73.1001 70.8691 73.1086L71.1778 73.1499L71.0134 73.2061L71.0772 73.2215L71.0916 73.1695C71.2582 73.3068 72.651 73.1764 73.104 73.2798C72.3046 73.3206 71.0831 73.2766 70.2539 73.2718C70.0474 73.2649 69.3927 73.2936 69.322 73.0991C69.7254 73.1261 69.9377 73.1091 70.3263 73.018Z" fill="#C1C6C3" fill-opacity="0.223529"/>
<path d="M68.3906 65.3663L68.6812 65.3408L68.7248 65.3996L68.6956 65.3832C68.727 65.4987 68.694 65.4558 68.7711 65.5311L69.0186 65.5046C69.7691 65.5608 70.9117 65.5756 71.6659 65.5486C72.105 65.5745 73.2865 65.5533 73.6234 65.6069C73.0007 65.6466 72.2104 65.6196 71.5749 65.6148L68.2192 65.5947L67.9941 65.5268L68.2873 65.4654L68.3906 65.3663Z" fill="#E9E9E9" fill-opacity="0.317647"/>
<path d="M78.4401 65.6494C79.0192 65.6531 79.3257 65.6706 79.8814 65.8312C80.1177 66.5249 80.1805 66.898 79.3529 67.0443C79.8202 66.7889 79.8223 66.7597 80.0043 66.2504C79.2087 65.6208 79.0101 65.9711 78.4401 65.6494Z" fill="#202428"/>
<path d="M52.0431 42.4869L52.1323 42.4761C52.0259 42.8037 52.2503 42.934 52.2159 43.1586L52.2051 43.2489C52.1722 43.2364 52.1394 43.224 52.1066 43.2115C51.9794 43.1036 51.883 42.8375 51.8094 42.6741C51.6894 42.5913 51.7572 42.6159 51.5923 42.6228C51.4519 42.7331 51.4533 42.7656 51.3868 42.9427L51.3677 42.995L51.3627 42.9542L51.2664 42.8792L51.3623 42.9134L51.2568 42.8536L51.2379 42.6494L51.2537 42.5919C51.4229 42.5183 51.8401 42.5031 52.0431 42.4869Z" fill="#4C4F50" fill-opacity="0.858824"/>
<path d="M52.2625 42.485C52.4532 42.4845 52.6615 42.4794 52.8504 42.4871L52.8788 42.6464L52.6893 42.6416C52.5766 42.7803 52.5997 42.7032 52.6174 42.8803C52.7331 43.039 52.6594 42.9939 52.8334 43.0387L52.8526 43.0654L52.6263 43.1341C52.5555 43.0679 52.4351 42.8458 52.2973 42.7718C52.2081 42.7239 52.2499 42.5899 52.2625 42.485Z" fill="#4C4F50" fill-opacity="0.788235"/>
<path d="M56.3702 55.102L56.7034 54.7332C56.7183 55.2488 56.8258 54.8906 56.8918 55.2742C56.7332 55.3288 56.7146 55.3304 56.5453 55.3431C56.3883 55.2446 56.4389 55.2992 56.3702 55.102Z" fill="#454E4C" fill-opacity="0.917647"/>
<path d="M57.1755 56.4973C57.1505 56.6939 57.1254 57.0283 56.9706 57.1508C56.7971 57.0538 56.7688 56.7729 56.7247 56.5795C56.7747 56.678 56.7742 56.6738 56.8535 56.7522C57.101 56.4872 56.9333 56.7273 57.1755 56.4973Z" fill="#FEFEFE" fill-opacity="0.317647"/>
<path d="M52.1324 42.4761L52.2625 42.485C52.2499 42.5899 52.2081 42.7239 52.2973 42.7718C52.4351 42.8458 52.5555 43.0679 52.6263 43.1341C52.4894 43.1378 52.3507 43.1365 52.216 43.1586C52.2503 42.934 52.0259 42.8037 52.1324 42.4761Z" fill="#4C4F50" fill-opacity="0.823529"/>
<path d="M68.3905 65.3663L68.3102 65.3525L68.3107 65.3144C68.7408 65.2577 69.0383 65.2852 69.4699 65.3335C69.3454 65.3748 69.1224 65.4384 69.0186 65.5046L68.7711 65.5311C68.6939 65.4559 68.7269 65.4988 68.6955 65.3833L68.7248 65.3997L68.6811 65.3409L68.3905 65.3663Z" fill="#C1C6C3" fill-opacity="0.298039"/>
<path d="M58.1633 56.5063C58.1378 56.2535 58.0617 56.1417 58.1394 55.9249C58.2586 55.8698 58.3698 55.812 58.4859 55.7527C58.3805 55.9509 58.2293 56.4252 58.1633 56.5063Z" fill="#979999" fill-opacity="0.0941176"/>
<path d="M52.8788 42.6464C52.89 42.7667 52.9015 42.8638 52.9023 42.9854L52.8334 43.0387C52.6594 42.9939 52.7331 43.039 52.6174 42.8804C52.5996 42.7032 52.5765 42.7803 52.6893 42.6416L52.8788 42.6464Z" fill="#4C4F50" fill-opacity="0.729412"/>
</svg>
