<svg width="110" height="85" viewBox="0 0 110 85" fill="none" xmlns="http://www.w3.org/2000/svg">
<path d="M37.083 20.1435C38.981 19.7768 40.2619 21.1584 41.0365 22.6973C41.6133 23.8432 42.29 25.133 42.9465 26.2247C43.364 26.3411 44.3161 26.4294 44.8018 26.52L50.8153 27.6096C51.3094 27.7026 52.3579 27.8199 52.7682 27.98C53.007 28.0708 53.1973 28.2594 53.2928 28.4999C53.4479 28.8925 53.2906 29.2784 53.1271 29.6298C52.3403 30.1006 45.7747 31.1423 44.5406 31.3204C44.6832 31.9444 44.8687 32.6606 44.8856 33.2986C44.8849 33.7771 44.6827 34.1525 44.8099 34.6334C45.18 36.0329 47.1906 37.8919 46.4672 39.3616C46.1864 39.9321 45.2261 40.108 44.6796 40.2366C44.5842 41.5214 44.5527 42.9815 44.2229 44.2114C43.6903 46.1983 41.3707 46.429 39.7365 45.8677C39.4385 46.9912 39.2239 47.8211 39.0126 48.9621C39.4916 49.1492 40.0501 49.6247 40.4822 49.7081C40.9692 49.8021 41.8764 49.7651 42.3951 49.7619L45.4822 49.7441L48.217 49.7519C50.5677 49.7599 50.5969 49.9576 50.5494 47.3674C50.5402 46.8611 50.5466 46.2732 50.545 45.7614L50.5273 36.9222L50.5201 34.4477C50.5155 33.977 50.486 33.5098 50.5135 33.0247C50.5521 32.3452 51.0088 31.5797 51.7195 32.1851C52.0002 32.4243 52.013 32.7646 52.0142 33.1158C52.0278 36.7866 52.0311 40.4577 52.0399 44.1287L52.0469 47.5567C52.0493 49.0882 52.2684 50.9532 50.2162 51.2457C49.3064 51.3754 48.2757 51.3094 47.3455 51.311L41.8567 51.3195L26.2114 51.3496L22.3928 51.3635C21.0373 51.3687 19.2796 51.6577 18.5398 50.2435C18.134 49.4677 18.2445 48.2697 18.2421 47.393L18.2353 44.2808L18.2305 40.988C18.2295 40.1265 18.1669 38.8872 18.3687 38.0917C18.5878 38.0042 18.8347 37.9258 19.072 37.9198C19.2435 37.9154 19.4219 37.9484 19.5445 38.0808C19.6952 38.2435 19.7263 38.534 19.7466 38.7491C19.8385 39.7223 19.7725 40.7596 19.7728 41.7387C19.7735 44.0069 19.7378 46.2811 19.773 48.5487C19.7776 48.8445 19.8052 49.4601 20.0535 49.6588C20.4209 49.9527 25.2591 49.7972 26.0789 49.7663C26.514 48.46 27.6926 45.5556 28.4332 44.2904C28.5132 44.1538 29.074 44.1718 29.2595 44.1725C29.7842 42.2298 29.4949 42.0717 28.4065 40.4748C27.1875 38.6862 26.331 36.8966 26.0736 34.7142C24.8171 34.9381 23.5815 35.1953 22.3165 35.4004C20.8804 35.6333 19.4165 36.0756 17.9565 36.1428C17.4972 36.1639 16.9556 35.4576 17.0639 34.9945C17.1843 34.4696 17.9647 34.0901 18.3837 33.8279C18.887 33.5131 19.4232 33.2265 19.9256 32.911C21.9526 31.6382 24.1423 30.559 26.1323 29.2367C26.2753 27.7647 26.5618 24.0814 27.3587 22.963C29.1053 20.5116 31.478 21.9858 33.6502 21.5527C34.6363 21.3561 35.6966 20.3716 37.083 20.1435Z" fill="#474A4C"/>
<path d="M42.8836 31.6722C42.907 31.669 43.0205 31.68 43.0487 31.6822C43.4763 32.2273 43.1355 34.4073 43.2857 34.9463C43.6003 36.0758 44.6772 37.4906 45.1075 38.5401L45.1315 38.5999C44.286 38.7707 43.8657 38.7548 43.2614 39.3808C43.1127 40.7569 43.1425 42.6281 42.714 43.9323C42.412 44.8515 40.7054 44.4674 39.9858 44.3326C38.6635 44.085 36.7384 43.9 36.0428 42.512C35.9103 42.2599 35.5487 41.5534 35.2735 41.4808C34.2114 41.2004 34.1671 42.4332 34.5508 43.1053C35.3886 44.5782 36.7416 45.1395 38.2688 45.6142C38.0611 46.1823 37.7098 48.0865 37.4812 48.2628L37.3349 48.214C35.3805 47.1585 33.383 46.2195 31.4139 45.1952C31.1436 45.0546 30.9273 44.9431 30.6399 44.8424C30.9 43.771 30.9975 43.2133 30.9502 42.0933C31.6369 41.2374 32.7645 40.5048 33.2331 39.5277C33.4978 38.972 32.7168 38.5574 32.4087 38.1845C31.9729 37.6821 31.5445 36.7342 31.888 36.0737C32.3079 35.266 32.6626 35.0137 33.4696 35.475C33.6271 35.7292 33.7773 36.1874 33.945 36.3828C34.343 36.8464 35.2742 36.493 35.653 36.1986C36.6649 35.4123 36.9769 33.8561 37.1584 32.656C38.8976 32.4741 41.0633 31.9476 42.8836 31.6722Z" fill="#99582A" fill-opacity="0.5"/>
<path d="M37.3766 22.1711C38.9461 22.1547 39.4397 23.5433 40.09 24.7432C40.4741 25.4519 40.8956 26.151 41.2229 26.8891C40.1211 27.0418 39.0506 27.2871 37.9551 27.4791C35.5576 27.8862 33.1651 28.3229 30.778 28.7892C30.0961 28.9599 28.4475 29.1828 27.6921 29.2964C27.7954 28.1856 28.0138 27.0659 28.1584 25.9578C28.195 25.6772 28.2361 25.3499 28.3055 25.0799C28.3694 24.8318 28.4746 24.5966 28.6165 24.3845C29.7348 22.7399 32.1022 24.1469 34.0284 23.6076C35.3084 23.2493 36.3607 22.3576 37.3766 22.1711Z" fill="#975D34"/>
<path d="M42.0935 27.7226C42.8213 27.668 44.4173 28.0593 45.2048 28.1961C46.471 28.4161 47.8877 28.5993 49.1232 28.9113C48.5623 29.1059 47.5456 29.235 46.9213 29.3427L43.5169 29.9652L27.162 32.9466C26.352 33.1195 25.4643 33.244 24.6391 33.4042C23.5605 33.6135 22.3165 33.9208 21.2316 33.9833C21.7959 33.5621 23.3826 32.6772 24.0398 32.2897C24.5886 31.966 26.7509 30.6217 27.1739 30.5048C28.3414 30.1822 30.2681 29.9004 31.4922 29.6667L39.1896 28.2603C40.1563 28.0898 41.126 27.858 42.0935 27.7226Z" fill="#99582A"/>
<path d="M29.2816 45.8808C30.5982 46.4629 32.0414 47.2233 33.3325 47.8718C34.5544 48.4856 35.8641 49.1155 37.0541 49.7706L35.3339 49.7672L27.7105 49.7893C28.0638 48.7 28.8254 47.0222 29.2816 45.8808Z" fill="white"/>
<path d="M35.0515 33.0975L35.6217 33.0534C35.4341 33.7114 35.256 34.2273 34.9393 34.8372C34.25 34.2642 33.9957 33.829 33.007 33.8067C29.8818 33.7362 29.6672 37.5217 31.3997 39.3983C31.2422 39.6038 30.4754 40.5078 30.2629 40.5527C28.927 38.6095 27.9304 36.824 27.506 34.4722C29.665 34.0406 31.8417 33.7054 33.997 33.2513C34.3242 33.1824 34.7158 33.1437 35.0515 33.0975Z" fill="#432818"/>
<path d="M19.0064 57.4459C20.2147 57.3855 21.8526 57.4298 23.0927 57.4273L30.9491 57.4114L54.8858 57.364L71.6972 57.3288L76.9497 57.3177C77.895 57.3157 79.2026 57.2768 80.1171 57.3611C80.4898 57.9474 80.7608 58.7711 79.8282 58.9826C76.2076 59.0669 72.3143 59.006 68.677 59.0128L47.2255 59.0563L28.1823 59.0943L21.9647 59.1074C21.187 59.109 19.3441 59.2666 18.6493 58.9241C18.0622 58.635 18.0609 57.5496 19.0064 57.4459Z" fill="#474A4C"/>
<path d="M18.9455 65.3499C19.7914 65.3087 20.8579 65.3331 21.7222 65.3313L26.7877 65.321L42.1455 65.2905L67.9759 65.2392C71.768 65.2315 75.5654 65.2385 79.3564 65.1961C80.9919 65.1776 80.6766 66.6276 79.9051 66.7467C79.126 66.797 78.0689 66.7677 77.269 66.7693L72.553 66.7783L57.9577 66.8063L31.6084 66.8602C27.9328 66.8682 24.2574 66.874 20.5818 66.8831C20.0243 66.849 19.1155 67.035 18.6195 66.7289C17.9639 66.3246 18.22 65.5117 18.9455 65.3499Z" fill="#474A4C"/>
<path d="M20.2366 16.5526C22.3622 16.455 25.0003 16.5215 27.1538 16.5185L39.9061 16.4934L46.4389 16.4773C47.5076 16.4738 48.5802 16.4584 49.6479 16.4744C50.7027 16.3673 52.0842 17.4383 51.9647 18.6525C51.8816 19.497 52.3233 25.395 51.6876 25.7007C50.4036 26.318 50.4975 24.8162 50.4978 23.8663L50.5006 20.5907C50.5012 19.806 50.5866 18.9407 50.2934 18.213C49.5127 17.8839 45.7355 18.0472 44.6635 18.0522L26.4633 18.0906C24.6518 18.0935 22.1163 18.0435 20.266 18.1535C20.0666 18.1653 19.833 18.5935 19.725 18.7762C19.6957 19.765 19.7243 20.7883 19.7248 21.7802C19.7262 24.6076 19.742 27.4368 19.7442 30.2639C19.7445 30.6013 19.6317 31.1443 19.2613 31.2434C18.9646 31.3228 18.3156 31.2049 18.2871 30.8015C18.1828 30.1075 18.2074 29.4011 18.2054 28.6992L18.1991 25.4746L18.1918 21.3271C18.1881 19.2493 17.7306 17.084 20.2366 16.5526Z" fill="#474A4C"/>
<path d="M58.163 42.0431C60.1737 41.9872 62.3202 42.0192 64.3379 42.015L75.4571 41.9932L85.8031 41.9723C87.5775 41.9682 89.336 41.9638 91.1275 41.9638C91.9279 41.9638 92.5151 42.3058 92.0961 43.2805C92.0151 43.4698 91.7815 43.5022 91.591 43.5336C89.847 43.5852 87.9331 43.5511 86.1767 43.5541L76.057 43.5715L64.8297 43.5958C62.7971 43.6016 60.764 43.612 58.732 43.6062C58.3189 43.5883 57.6783 43.6635 57.5308 43.1374C57.3764 42.5854 57.6572 42.1864 58.163 42.0431Z" fill="#474A4C"/>
<path d="M58.2542 49.5185C59.6975 49.443 61.6343 49.4968 63.1219 49.4937L72.4119 49.4753L84.883 49.4509C86.9246 49.4468 88.9466 49.4397 91.0073 49.4364C91.7961 49.4352 92.6273 49.6201 92.0676 50.7664C91.9806 50.9438 91.7401 50.9715 91.5507 51.0023L69.7215 51.0455L62.0979 51.0601C60.9137 51.0625 59.7518 51.066 58.5421 51.0743C57.7794 51.0796 57.1949 50.734 57.6455 49.8437C57.752 49.6337 58.0355 49.5594 58.2542 49.5185Z" fill="#474A4C"/>
<path d="M58.2038 34.5704C59.851 34.53 61.6084 34.5562 63.2653 34.553L72.8331 34.5337L77.4326 34.5187C78.1489 34.5164 79.4677 34.4741 80.1338 34.5856C80.5588 35.2767 80.6593 36.0264 79.6434 36.0868C78.3364 36.1292 76.8743 36.099 75.5586 36.1023L67.8738 36.1222L61.939 36.1349C60.6595 36.141 58.929 36.2877 57.7346 35.9697C57.3474 35.8665 57.2206 34.7624 58.2038 34.5704Z" fill="#474A4C"/>
<path d="M88.552 60.6253C90.3179 60.3472 91.9703 61.5819 92.239 63.38C92.5072 65.178 91.2896 66.8562 89.5221 67.1246C87.761 67.3919 86.1197 66.1582 85.8521 64.3672C85.5845 62.5757 86.7919 60.9019 88.552 60.6253Z" fill="#432818"/>
</svg>
