<svg width="20" height="20" viewBox="0 0 20 20" fill="none" xmlns="http://www.w3.org/2000/svg">
<path d="M2.91699 9.16699V2.91699H9.16699V9.16699H2.91699ZM4.16699 7.91699H7.91699V4.16699H4.16699V7.91699ZM2.91699 17.0837V10.8337H9.16699V17.0837H2.91699ZM4.16699 15.8337H7.91699V12.0837H4.16699V15.8337ZM10.8337 9.16699V2.91699H17.0837V9.16699H10.8337ZM12.0837 7.91699H15.8337V4.16699H12.0837V7.91699ZM15.5212 17.0837V15.5212H17.0837V17.0837H15.5212ZM10.8337 12.3962V10.8337H12.3962V12.3962H10.8337ZM12.3962 13.9587V12.3962H13.9587V13.9587H12.3962ZM10.8337 15.5212V13.9587H12.3962V15.5212H10.8337ZM12.3962 17.0837V15.5212H13.9587V17.0837H12.3962ZM13.9587 15.5212V13.9587H15.5212V15.5212H13.9587ZM13.9587 12.3962V10.8337H15.5212V12.3962H13.9587ZM15.5212 13.9587V12.3962H17.0837V13.9587H15.5212Z" fill="#432818" fill-opacity="0.4"/>
</svg>
