<svg width="93" height="68" viewBox="0 0 93 68" fill="none" xmlns="http://www.w3.org/2000/svg">
<path d="M15.1958 12.179L33.3919 12.1846L38.7424 12.1863C39.6456 12.186 40.6053 12.1576 41.5009 12.2151C41.8803 12.263 42.3276 12.4628 42.6038 12.7149C43.5523 13.5803 43.3142 14.7498 43.3167 15.9406L43.321 19.9342L43.3201 31.4007L43.3196 38.1044C43.3194 39.1432 43.3335 40.2382 43.3003 41.276C43.2885 41.6465 42.9945 42.2298 42.7263 42.4993C42.181 43.0475 41.504 43.078 40.7844 43.0836L22.6974 43.0823L17.4044 43.0844C16.4587 43.0864 15.4889 43.1091 14.5483 43.0582C13.8088 43.0181 13.1548 42.5057 12.8777 41.834C12.7503 41.5252 12.7445 41.1785 12.7295 40.8491C12.7303 39.4309 12.7298 38.0125 12.73 36.5942L12.7513 25.6962C12.7286 23.1245 12.7212 20.5526 12.7292 17.9808C12.7293 16.6858 12.6936 15.3537 12.7676 14.0636C12.845 12.7139 14.0108 12.208 15.1958 12.179Z" fill="#474B4C"/>
<path d="M14.8503 13.5805C16.345 13.5068 18.4809 13.5712 20.022 13.5715L30.0928 13.5729L37.3547 13.5709C38.601 13.5701 39.8514 13.551 41.0962 13.5944C41.7687 13.6178 41.9004 13.8282 41.9028 14.5005C41.9098 16.4389 41.9082 18.3777 41.9087 20.3162L41.9063 32.0938L41.9057 38.0685C41.9073 38.8818 41.9567 40.6228 41.853 41.3391C41.77 41.4501 41.6413 41.5743 41.5423 41.6761C41.4873 41.6789 41.4322 41.6814 41.3771 41.6836C39.9159 41.7422 37.6723 41.719 36.1932 41.6565C36.0842 41.6519 34.1414 40.5285 34.038 40.4229C33.1298 39.4951 32.9677 37.7797 32.9669 36.534C33.1985 36.1234 33.4805 35.9017 33.7257 35.5122C34.3991 34.4423 34.5999 33.5454 34.9406 32.3825C36.4233 31.8045 36.9054 29.8088 36.8677 28.344C36.8462 27.5108 36.5689 27.1917 35.9714 26.6851C36.0582 25.6824 36.3687 24.6524 36.3748 23.637C36.38 22.796 36.1992 21.9628 35.9724 21.1571C34.5707 17.2177 29.8573 15.3524 25.9555 16.3116C25.3576 16.4586 24.7609 16.6152 24.2244 16.9038C23.5806 17.2503 23.2426 17.8267 22.7299 18.31C21.9354 18.8944 21.0105 19.1543 20.4486 20.1655C19.2171 22.3822 19.6114 24.3651 20.1889 26.6355C19.8685 26.8941 19.6645 26.8982 19.4985 27.3312C18.8707 28.9695 19.4475 31.6753 21.1579 32.429C21.637 34.2304 21.8562 35.0405 23.123 36.4436C23.1766 37.5843 22.9985 38.6988 22.501 39.73C22.1112 40.538 21.7077 40.6674 20.9657 41.0793C20.781 41.1819 20.143 41.6418 19.9883 41.6522C18.3327 41.7643 16.6345 41.6922 14.9709 41.6937C14.8143 41.6938 14.2788 41.5957 14.2558 41.4392C14.1109 40.4554 14.1686 39.2609 14.1691 38.2735L14.1723 32.5194L14.172 20.5784C14.1712 18.5208 14.1652 16.4625 14.1785 14.405C14.182 13.865 14.345 13.6713 14.8503 13.5805Z" fill="white"/>
<path d="M24.2862 23.4147C24.8584 23.4184 25.7363 23.8818 26.5141 23.9895C27.8139 24.1695 28.8621 24.179 30.1531 23.8581C30.6347 23.7384 31.2173 23.4876 31.684 23.4179L31.7389 23.4102C33.3837 24.5618 33.5924 26.3831 33.7139 28.1804C33.726 28.3599 33.9018 28.5253 34.0544 28.6185C34.7073 29.0172 34.9489 28.0635 35.3545 27.9515L35.4391 28.0264C35.6547 28.8692 35.2344 30.4098 34.649 31.0428C34.2706 31.1231 34.1783 31.1278 33.8353 31.3063C33.7191 31.5639 33.4282 32.5023 33.358 32.7929C32.9806 34.3537 32.3279 35.2484 31.168 36.3401C29.9757 37.5856 28.0676 38.1866 26.4637 37.3803C25.2711 36.7807 24.1957 35.721 23.4588 34.6156C22.7881 33.6095 22.6771 32.4076 22.2762 31.3336L22.2532 31.2728C22.0494 31.1847 21.5983 31.1114 21.4624 31.0027C20.9176 30.5668 20.2832 28.6001 20.6676 28.0274C21.0296 27.9084 21.5965 29.0463 22.0964 28.6697C22.5767 28.2742 22.4077 27.485 22.4729 26.9711C22.6524 25.554 23.0394 24.2195 24.2862 23.4147Z" fill="white"/>
<path d="M27.5707 17.4381C30.5633 17.2956 33.6438 18.7736 34.7355 21.7178C35.1408 22.8109 35.0502 24.5211 34.7796 25.6596C34.3658 24.5368 33.9527 23.378 32.9804 22.6069C31.9569 21.7951 31.2012 22.1628 30.0759 22.438C29.5979 22.555 29.2107 22.6176 28.7242 22.6756C27.9483 22.7021 27.4855 22.6946 26.723 22.5874C25.5029 22.4157 24.4517 21.7378 23.2817 22.4368C22.1912 23.0883 21.6573 24.392 21.3342 25.5404C20.9251 23.8918 20.716 21.1351 22.408 20.1401C22.8375 19.8876 23.3371 19.6712 23.7175 19.3595C23.9173 19.1957 24.0652 18.786 24.2521 18.5941C25.1171 17.7765 26.4179 17.5236 27.5707 17.4381Z" fill="#99582A"/>
<path d="M31.5888 37.7842C31.6206 37.7908 31.6771 37.8269 31.6788 37.8355C31.7654 38.2781 31.8497 38.8717 31.9284 39.3057C32.0866 40.1782 32.7196 41.1336 33.3799 41.7152C30.0847 41.6592 26.6965 41.6991 23.3954 41.7016C23.2325 41.7051 22.9374 41.7305 22.8049 41.6709C23.9495 40.701 24.2074 39.1408 24.4374 37.7825C24.8573 37.9939 25.1726 38.2865 25.568 38.4939C27.0632 39.278 29.1228 39.3036 30.6001 38.4595C30.9459 38.262 31.2679 38.0082 31.5888 37.7842Z" fill="white"/>
<path d="M49.8559 28.2815L62.1834 28.2763L66.1127 28.2704C67.0522 28.2688 68.4836 28.0901 69.2306 28.6699C69.6947 29.0301 69.859 29.5098 69.8926 30.0798C69.9353 30.8105 69.9126 31.552 69.9103 32.2837L69.9054 36.3346L69.9144 40.0248C69.9208 41.7002 70.3041 43.6878 68.0431 43.8018C66.7898 43.8348 65.407 43.8058 64.1446 43.8054L56.6501 43.8039L52.184 43.8089C51.3789 43.8107 50.5729 43.8319 49.7691 43.7949C47.623 43.6961 47.9672 41.2067 47.9677 39.7168L47.97 35.7199L47.9686 32.1106C47.9682 30.4844 47.6871 28.4596 49.8559 28.2815Z" fill="#474B4C"/>
<path d="M48.7714 31.5982C48.8813 31.5188 50.5701 31.5554 50.8816 31.5558L55.2324 31.5546C59.8129 31.5479 64.477 31.5038 69.0534 31.5521C69.354 31.8369 69.3095 31.9414 69.305 32.3662C69.2682 35.605 69.3867 38.8579 69.2855 42.0914C69.2759 42.3986 68.9381 42.9262 68.6157 42.981C68.5589 42.9999 68.5017 43.0171 68.444 43.0328C67.6285 43.255 64.9738 43.1916 64.0052 43.1933L56.4185 43.1942L52.2844 43.1876C51.4543 43.1864 50.6033 43.1952 49.7755 43.1433C49.4921 43.1255 49.3023 42.9972 49.0557 42.8571C48.3973 42.4361 48.5739 41.0897 48.5748 40.373L48.5812 37.1497L48.578 33.8663C48.5753 33.2542 48.5635 32.6185 48.5875 32.0062C48.5934 31.8592 48.6902 31.7179 48.7714 31.5982Z" fill="white"/>
<path d="M48.8082 42.0886C49.0217 42.7464 49.4295 42.9047 50.0834 42.9104C51.4729 42.9225 52.862 42.9203 54.2516 42.9208L62.1961 42.9224L66.0718 42.9226C66.6154 42.9224 67.9872 42.9455 68.4472 42.8445C68.5894 42.8951 68.5344 42.8517 68.6157 42.9809C68.5589 42.9998 68.5017 43.017 68.4441 43.0327C67.6285 43.2549 64.9738 43.1915 64.0052 43.1931L56.4185 43.1941L52.2844 43.1875C51.4543 43.1863 50.6033 43.195 49.7755 43.1431C49.4921 43.1254 49.3023 42.9971 49.0557 42.8569C48.7901 42.5134 48.7687 42.5101 48.8082 42.0886Z" fill="#432818"/>
<path d="M69.0534 31.552C69.354 31.8368 69.3095 31.9414 69.3049 32.3662C69.2682 35.6049 69.3867 38.8578 69.2854 42.0913C69.2759 42.3985 68.938 42.9261 68.6156 42.981C68.5343 42.8518 68.5893 42.8951 68.4471 42.8446C68.8854 42.7063 68.9948 42.4517 69.0175 42.0161C69.0765 40.8792 69.0475 39.7294 69.0443 38.59C69.0279 36.244 69.0307 33.8979 69.0534 31.552Z" fill="#432818"/>
<path d="M49.0557 42.857C48.3973 42.4361 48.5739 41.0897 48.5748 40.373L48.5812 37.1497L48.578 33.8662C48.5753 33.2542 48.5635 32.6184 48.5875 32.0062C48.5934 31.8592 48.6902 31.7179 48.7714 31.5981C48.8282 35.0634 48.7097 38.6447 48.8082 42.0887C48.7687 42.5102 48.7901 42.5134 49.0557 42.857Z" fill="#1C6955"/>
<path d="M57.0071 32.8061C57.0361 32.8036 57.1269 32.8159 57.161 32.8196C57.3681 32.9636 57.3976 33.1645 57.3903 33.408C57.3544 34.6383 57.4543 36.1627 57.3867 37.3569C57.3399 38.1801 57.5488 40.9955 57.3267 41.6009C56.7432 41.9988 51.9647 41.6844 51.0529 41.7894C50.5061 41.8523 49.939 41.8291 49.9449 41.1233C49.9658 38.666 49.9444 36.1927 49.9576 33.734C49.9612 32.8714 50.0153 32.7053 50.9266 32.7911L54.9477 32.7958C55.4522 32.795 56.5371 32.7614 57.0071 32.8061Z" fill="#474B4C"/>
<path d="M50.9266 32.7911L54.9477 32.7958C55.4522 32.795 56.537 32.7614 57.007 32.8061C56.7477 32.9152 56.0888 32.8077 55.8559 32.9318C55.9907 33.174 56.542 33.2028 56.7845 33.0601L56.8077 33.1009C56.5743 33.1973 51.2694 33.1617 51.1823 33.0866L51.1682 33.1078L51.224 33.0861C51.5287 33.1555 51.9016 33.2076 52.1454 32.9578C51.9946 32.7959 50.9834 32.9201 50.665 32.8295L50.9266 32.7911Z" fill="#131212"/>
<path d="M50.4739 33.2198C52.6277 33.1844 54.7819 33.1818 56.9358 33.2121L56.9135 40.1997C56.2328 39.7127 56.1202 39.7705 55.3727 39.4502C55.0558 39.3143 54.9904 39.0625 54.9077 38.7586C55.3278 37.8356 55.9958 37.3091 55.7446 36.3042C55.6624 35.9744 55.6733 35.5532 55.6057 35.1901C55.1652 34.1467 54.307 33.7709 53.1985 33.9508C52.6259 34.0614 52.0909 34.6043 51.7336 35.0385C51.403 35.4397 51.907 36.2413 51.6105 36.6348C51.4416 36.8589 51.5978 37.3293 51.6627 37.5887C52.1604 37.7818 52.2939 38.3345 52.4865 38.7999C52.3997 39.0624 52.3625 39.1958 52.224 39.4329C51.4734 39.6374 51.0792 39.6941 50.453 40.2095C50.4603 37.9439 50.4126 35.4722 50.4739 33.2198Z" fill="white"/>
<path d="M54.4036 39.0601C54.5203 39.1776 54.489 39.4826 54.5417 39.5217C55.765 40.4333 56.1179 39.6783 56.7899 41.2835C55.4685 41.3101 54.039 41.2862 52.7098 41.2861L50.6046 41.2952C50.6378 41.097 50.6941 40.9104 50.7472 40.7167C51.3752 40.0757 51.5614 40.1581 52.4033 39.8202C52.7875 39.666 52.8243 39.5206 52.9723 39.1608C53.584 39.0678 53.3887 39.6193 54.4036 39.0601Z" fill="white"/>
<path d="M52.663 35.8596C52.8333 35.8546 53.2547 35.9211 53.4718 35.9326C53.7606 35.9478 54.4526 35.8553 54.6506 35.9245C55.0648 36.2566 54.5993 36.5762 55.3549 36.9347C55.0393 37.4387 54.7383 37.9826 54.4236 38.4977C53.2743 39.5284 52.4278 37.8255 52.0623 36.9472L52.1063 36.8841C52.658 36.8373 52.4056 36.2975 52.663 35.8596Z" fill="white"/>
<path d="M53.5459 34.354C54.1326 34.3171 54.6312 34.5838 54.9945 35.0382C55.2188 35.3191 55.2524 35.5397 55.3323 35.8816C54.4573 35.1317 54.7856 35.3868 53.8615 35.5189L53.8115 35.5258C52.7258 35.4999 53.0241 34.8476 52.1086 35.8731C52.1195 35.6077 52.1009 35.3908 52.2485 35.1682C52.5096 34.7747 53.1009 34.4525 53.5459 34.354Z" fill="white"/>
<path d="M59.2312 37.5349L64.6627 37.548C65.2653 37.5477 67.2669 37.4138 67.6593 37.6771C67.7919 37.9201 67.6979 38.0422 67.4849 38.1586L59.5745 38.1888C59.3415 38.1909 59.1031 38.1153 58.9342 37.9515C58.871 37.7968 58.8747 37.8724 58.9137 37.7175C59.0286 37.5899 59.0645 37.5855 59.2312 37.5349Z" fill="#474B4C"/>
<path d="M59.0387 35.5747C59.4088 35.5306 60.267 35.5554 60.6707 35.5565L63.7282 35.5635L66.1663 35.5572C66.5268 35.5559 67.2666 35.5357 67.5981 35.5901C67.7942 35.7787 67.7311 35.9704 67.5613 36.1592C66.7348 36.202 59.2898 36.2278 59.085 36.1205C58.9915 36.0714 58.9184 35.9882 58.907 35.8795C58.8929 35.742 58.961 35.6746 59.0387 35.5747Z" fill="#474B4C"/>
<path d="M66.2394 39.4429C66.7298 39.3118 67.2488 39.5098 67.5263 39.9339C67.8042 40.3581 67.7783 40.9125 67.4613 41.3086C67.2902 41.5232 67.0486 41.671 66.7797 41.7261C66.1572 41.8537 65.5459 41.464 65.4002 40.8464C65.254 40.2287 65.6259 39.607 66.2394 39.4429Z" fill="#432818"/>
<path d="M59.1045 33.4421C59.6204 33.4454 63.5179 33.3743 63.666 33.5229C63.7799 33.6377 63.8063 33.8014 63.8045 33.9561C63.7282 34.0849 63.7463 34.0458 63.5751 34.1175C62.8849 34.1523 59.5763 34.2316 59.0986 34.0794C58.9837 34.0427 58.9615 33.9977 58.9101 33.8939C58.9061 33.7236 59.0119 33.5952 59.1045 33.4421Z" fill="#474B4C"/>
<path d="M59.0823 40.2231C60.3234 40.2324 61.5658 40.2193 62.8055 40.2399C62.9317 40.5461 63.0166 40.6414 62.8032 40.9046C61.7297 40.9839 60.1154 40.953 59.0305 40.8447C58.7694 40.8186 59.0201 40.3424 59.0823 40.2231Z" fill="#474B4C"/>
<path d="M49.5884 29.0434C50.4421 28.9883 51.8426 29.0314 52.7221 29.0316L58.7985 29.0331L64.7835 29.0296C65.8516 29.0289 66.9151 29.0248 67.9827 29.0446C69.2074 29.0675 69.1634 29.8704 69.201 30.8393L68.3991 30.8472L48.7052 30.8448C48.6934 30.29 48.6784 30.0285 48.8618 29.4972C49.1366 29.2474 49.2401 29.1658 49.5884 29.0434Z" fill="#432818"/>
<path d="M52.7057 47.7138C52.7534 47.7079 52.8996 47.697 52.9387 47.7238C54.2755 48.6447 55.5779 49.086 57.1795 49.4009C57.4361 50.6007 57.3226 53.0173 56.8689 54.1953C56.1033 56.1841 54.8523 57.2161 52.9623 58.0798C52.6335 58.1402 52.2757 57.8417 51.996 57.7047C48.8086 56.1428 48.1216 52.9406 48.4526 49.7053C48.463 49.6018 48.5044 49.4363 48.6256 49.3972C50.1373 49.0842 51.4442 48.6138 52.7057 47.7138Z" fill="#474B4C"/>
<path d="M52.7997 48.6194C53.0908 48.6579 53.7356 49.1819 54.0794 49.3202C54.8473 49.6287 55.6388 49.832 56.4285 50.0851C56.5942 51.3671 56.4848 53.1893 55.9262 54.3724C55.3754 55.5391 54.123 56.7853 52.8865 57.2122C52.3683 57.1745 51.1364 56.2087 50.7785 55.8249C49.1479 54.0748 49.1778 52.263 49.211 50.0683C50.1015 49.8251 51.021 49.6006 51.8557 49.2032C52.2008 49.039 52.4024 48.8054 52.7552 48.6398L52.7997 48.6194Z" fill="#432818"/>
<path d="M54.6525 51.1125C54.8828 51.1048 55.0008 51.1125 55.1529 51.2921C55.4032 51.9436 53.3374 53.568 52.9528 54.1301C52.8348 54.302 52.5319 54.4676 52.3343 54.5547C51.8198 54.2099 51.6441 54.0366 51.2359 53.593C51.086 53.4469 49.9839 52.7011 51.1114 52.3967C51.3258 52.3387 52.0905 53.1752 52.3266 53.4079C53.0382 52.7533 53.9532 51.5425 54.6525 51.1125Z" fill="#474B4C"/>
<path d="M13.229 48.5144C14.407 48.4414 16.0187 48.4931 17.2409 48.4935L24.6795 48.494L31.183 48.4935C32.2995 48.4935 33.4199 48.4767 34.5355 48.5158C34.9591 48.5303 35.2353 48.792 35.1603 49.2361C35.0974 49.6086 34.9671 49.7165 34.6718 49.9198C33.4801 49.9592 32.1325 49.9266 30.9309 49.927L23.793 49.9284L17.3083 49.9238C16.2535 49.9234 14.0896 50.0209 13.0157 49.7696C12.7464 49.7066 12.6379 48.9531 12.8619 48.7394C13.0238 48.5852 12.934 48.577 13.229 48.5144Z" fill="#474B4C"/>
<path d="M61.722 50.3762L73.0595 50.3752H76.7382C77.4226 50.3762 78.0987 50.3748 78.7835 50.3952C79.7217 50.4238 79.8643 51.1691 79.2417 51.7788C79.0469 51.7992 78.7735 51.7969 78.571 51.801L66.8479 51.7956L63.3695 51.8024C62.7151 51.8042 62.0948 51.806 61.415 51.791C60.7334 51.7765 60.2493 51.3156 60.7361 50.6606C60.9582 50.3616 61.3691 50.3789 61.722 50.3762Z" fill="#474B4C"/>
<path d="M52.8129 12.5815C54.3728 12.419 55.7705 13.5473 55.939 15.1049C56.1074 16.6626 54.9835 18.0631 53.4246 18.2374C51.8579 18.4126 50.4466 17.2824 50.2772 15.7163C50.1078 14.1502 51.2445 12.7448 52.8129 12.5815Z" fill="#474B4C"/>
<path d="M52.9805 13.4026C54.0985 13.3316 55.0603 14.1855 55.1207 15.3033C55.1811 16.421 54.3169 17.3734 53.1975 17.4231C52.0932 17.4721 51.155 16.6231 51.0955 15.5203C51.036 14.4174 51.877 13.4725 52.9805 13.4026Z" fill="white"/>
<path d="M63.0942 15.9268C64.0056 15.8789 65.2585 15.9182 66.2107 15.9187L72.213 15.9215L76.7263 15.9176C77.4543 15.9167 78.5695 15.8845 79.2684 15.9499C79.4187 16.1849 79.5295 16.3199 79.5563 16.6072C79.5895 16.9601 79.4773 17.3022 79.0704 17.3327L67.4345 17.329C66.1362 17.3292 64.3094 17.3936 62.9875 17.2812C62.7405 17.2602 62.5475 16.8261 62.4403 16.6076C62.6251 16.3189 62.79 16.095 63.0942 15.9268Z" fill="#474B4C"/>
<path d="M71.3793 54.0507C71.8933 54.0466 73.9431 53.9064 74.3868 54.2943C74.6983 54.5669 74.6552 55.3943 73.8923 55.4238C72.7879 55.4665 71.6499 55.4506 70.5247 55.451L63.6537 55.4529C62.8481 55.4524 61.7909 55.4901 61.0126 55.427C60.9518 55.3848 60.8923 55.3404 60.835 55.2936C60.2792 54.8359 60.5535 54.1047 61.2946 54.0756C62.3763 54.0334 63.462 54.0525 64.5451 54.052L71.3793 54.0507Z" fill="#474B4C"/>
<path d="M63.0515 19.5708C63.5987 19.5251 64.4606 19.5491 65.0387 19.548L68.7791 19.5464L71.9774 19.5467C72.6154 19.5465 73.3606 19.515 73.9931 19.6133C74.3782 19.6731 74.5894 20.0276 74.4536 20.3958C74.326 20.7425 74.202 20.8007 73.8914 20.9689C73.4909 21.0433 72.4851 21.0201 72.0255 21.0197L68.7596 21.0167L65.0723 21.0145C64.5192 21.0139 63.4929 21.0393 62.978 20.9677C62.449 20.4832 62.221 19.908 63.0515 19.5708Z" fill="#474B4C"/>
<path d="M51.2971 18.6099C51.6317 18.5263 52.5531 18.9817 53.0494 18.9679C53.6779 18.9504 53.9604 18.7789 54.5602 18.6364C55.1687 18.492 55.992 18.9162 56.502 19.2153C56.7077 19.3361 57.0387 19.7008 57.0537 19.942C57.0632 20.0966 57.0492 20.0871 56.9661 20.1886C56.8893 20.2248 56.6518 20.2853 56.5878 20.2512C55.9502 19.9119 55.2886 19.291 54.5144 19.5151C54.182 19.5839 53.5835 19.816 53.2547 19.7903C51.8329 19.6793 51.1681 19.0433 49.893 20.1073C49.3008 20.6015 48.978 21.1118 48.8758 21.9269C48.8308 22.2065 48.8231 22.4757 48.81 22.7575C50.2867 22.751 51.8388 22.7272 53.3096 22.7621C53.385 23.0182 53.4627 23.2099 53.3628 23.4652C53.2883 23.5359 53.2947 23.562 53.1911 23.5667C51.5831 23.641 49.9511 23.6088 48.3404 23.5807C48.2555 23.5792 48.0362 23.4076 47.9631 23.3534C47.8899 20.9457 48.7096 19.0673 51.2971 18.6099Z" fill="#474B4C"/>
<path d="M72.7612 33.5258C73.2248 33.4775 74.974 33.5024 75.5303 33.513C76.4943 33.5313 78.3344 33.4466 79.2262 33.5529C79.6508 33.9566 79.7902 34.6684 79.1581 34.8969C77.1723 34.989 75.0576 34.8588 73.0609 34.9088C72.1413 34.9318 71.9497 34.0953 72.7612 33.5258Z" fill="#474B4C"/>
<path d="M59.3429 19.2358C59.5527 19.2414 59.7766 19.278 59.9265 19.4307C60.4242 19.9382 59.4892 20.6776 59.1758 21.0228L57.5234 22.8413C56.1007 24.3847 56.3822 24.5442 54.811 22.8331C54.4781 22.4891 53.7688 21.9146 54.2061 21.402C54.3165 21.2728 54.4786 21.1989 54.6489 21.2002C55.0962 21.2007 55.7919 22.1423 56.1856 22.5287C56.869 21.8788 58.7599 19.5173 59.3429 19.2358Z" fill="#432818"/>
<path d="M72.9146 37.1262C73.6266 37.1131 77.9093 37.0335 78.2426 37.2288C78.4169 37.3308 78.5241 37.6087 78.5545 37.7976C78.5831 37.9764 78.486 38.2287 78.377 38.3684C78.2685 38.5073 78.1481 38.531 77.9806 38.5553C77.1777 38.5581 73.0467 38.6626 72.6194 38.4949C72.3951 38.407 72.2798 38.0524 72.1903 37.8525C72.3906 37.4453 72.4396 37.211 72.9146 37.1262Z" fill="#474B4C"/>
</svg>
