<svg width="18" height="18" viewBox="0 0 18 18" fill="none" xmlns="http://www.w3.org/2000/svg">
<path d="M8.24979 9.66338C8.43829 9.66338 8.59598 9.59875 8.72285 9.4695C8.84973 9.34013 8.91316 9.18363 8.91316 9C8.91316 8.8115 8.84973 8.65381 8.72285 8.52694C8.59598 8.40006 8.43829 8.33663 8.24979 8.33663C8.06616 8.33663 7.90966 8.40006 7.78029 8.52694C7.65104 8.65381 7.58641 8.8115 7.58641 9C7.58641 9.18363 7.65104 9.34013 7.78029 9.4695C7.90966 9.59875 8.06616 9.66338 8.24979 9.66338ZM5.24979 15.375V14.25L10.1248 13.6153V4.99762C10.1248 4.762 10.0505 4.55475 9.90204 4.37588C9.75341 4.19713 9.5676 4.09525 9.3446 4.07025L5.4806 3.5625V2.4375L9.50454 2.96831C10.0113 3.04419 10.4289 3.27156 10.7572 3.65044C11.0856 4.02931 11.2498 4.47212 11.2498 4.97887V14.5644L5.24979 15.375ZM2.79785 15.375V14.25H4.12479V3.79331C4.12479 3.40681 4.25723 3.08419 4.5221 2.82544C4.7871 2.56681 5.1066 2.4375 5.4806 2.4375H12.519C12.9055 2.4375 13.2281 2.56681 13.4869 2.82544C13.7455 3.08419 13.8748 3.40681 13.8748 3.79331V14.25H15.2017V15.375H2.79785ZM5.24979 14.25H12.7498V3.79331C12.7498 3.72594 12.7282 3.67063 12.6849 3.62738C12.6417 3.58413 12.5864 3.5625 12.519 3.5625H5.4806C5.41323 3.5625 5.35791 3.58413 5.31466 3.62738C5.27141 3.67063 5.24979 3.72594 5.24979 3.79331V14.25Z" fill="#432818" fill-opacity="0.4"/>
</svg>
